<?xml version="1.0" encoding="utf-8"?>
<!-- Generator: Adobe Illustrator 29.6.1, SVG Export Plug-In . SVG Version: 9.03 Build 0)  -->
<svg version="1.1" id="Layer_1" xmlns="http://www.w3.org/2000/svg" xmlns:xlink="http://www.w3.org/1999/xlink" x="0px" y="0px"
	 viewBox="0 0 87.79 87.79" style="enable-background:new 0 0 87.79 87.79;" xml:space="preserve">
<style type="text/css">
	.st0{fill-rule:evenodd;clip-rule:evenodd;}
	.st1{fill-rule:evenodd;clip-rule:evenodd;fill:#FCEE21;}
</style>
<g>
	<circle class="st0" cx="44.49" cy="43.59" r="35.11"/>
	<path class="st1" d="M88.39,43.59l-4.29,6.28l2.15,7.29l-6.02,4.64l-0.22,7.6l-7.16,2.55l-2.55,7.16l-7.6,0.22l-4.64,6.02
		l-7.29-2.15l-6.28,4.29l-6.28-4.29l-7.29,2.15l-4.64-6.02l-7.6-0.22l-2.55-7.16l-7.16-2.55l-0.22-7.6l-6.02-4.64l2.15-7.29
		L0.6,43.59l4.29-6.28l-2.15-7.29l6.02-4.64l0.22-7.6l7.16-2.55l2.55-7.16l7.6-0.22l4.64-6.02l7.29,2.15l6.28-4.29l6.28,4.29
		l7.29-2.15l4.64,6.02l7.6,0.22l2.55,7.16l7.16,2.55l0.22,7.6l6.02,4.64l-2.15,7.29L88.39,43.59z M73.63,55.69
		c0.65,0,1.17-0.52,1.17-1.17c0-0.65-0.52-1.17-1.17-1.17h-6.12v-8.59h6.12c0.65,0,1.17-0.52,1.17-1.17c0-0.65-0.52-1.17-1.17-1.17
		h-6.12v-8.59h6.12c0.65,0,1.17-0.52,1.17-1.17s-0.52-1.17-1.17-1.17h-7.29c-0.65,0-1.17,0.52-1.17,1.17v21.86
		c0,0.65,0.52,1.17,1.17,1.17L73.63,55.69z M52.94,32.66c0-0.65-0.52-1.17-1.17-1.17c-0.65,0-1.17,0.52-1.17,1.17v21.86
		c0,0.65,0.52,1.17,1.17,1.17h7.29c0.65,0,1.17-0.52,1.17-1.17c0-0.65-0.52-1.17-1.17-1.17l-6.11,0V32.66z M32.39,54.52
		c0,0.65,0.52,1.17,1.17,1.17c0.65,0,1.17-0.52,1.17-1.17v-9.76l8.59,0v9.76c0,0.65,0.52,1.17,1.17,1.17s1.17-0.52,1.17-1.17
		l0-10.91v-5.48c0-1.83-0.74-3.49-1.95-4.69c-1.2-1.2-2.86-1.95-4.69-1.95s-3.49,0.74-4.69,1.95c-1.2,1.2-1.95,2.86-1.95,4.69v5.46
		L32.39,54.52z M34.73,42.42h8.59v-4.29c0-1.19-0.48-2.26-1.26-3.04c-0.78-0.78-1.85-1.26-3.04-1.26c-1.19,0-2.26,0.48-3.04,1.26
		c-0.78,0.78-1.26,1.85-1.26,3.04L34.73,42.42z M20.8,42.42c-1.19,0-2.26-0.48-3.04-1.26s-1.26-1.85-1.26-3.04
		c0-1.19,0.48-2.26,1.26-3.04c0.78-0.78,1.85-1.26,3.04-1.26v0h5.46c0.64,0,1.17-0.52,1.17-1.17c0-0.64-0.52-1.17-1.17-1.17H20.8v0
		c-1.83,0-3.49,0.74-4.69,1.95c-1.2,1.2-1.95,2.86-1.95,4.69c0,1.83,0.74,3.49,1.95,4.69c1.2,1.2,2.86,1.95,4.69,1.95
		c1.19,0,2.26,0.48,3.04,1.26c0.78,0.78,1.26,1.85,1.26,3.04c0,1.19-0.48,2.26-1.26,3.04c-0.78,0.78-1.85,1.26-3.04,1.26v0h-5.46
		c-0.64,0-1.17,0.52-1.17,1.17s0.52,1.17,1.17,1.17h5.46v0c1.83,0,3.49-0.74,4.69-1.95c1.2-1.2,1.95-2.86,1.95-4.69
		s-0.74-3.49-1.95-4.69C24.3,43.16,22.64,42.42,20.8,42.42z"/>
</g>
</svg>
