<?xml version="1.0" encoding="utf-8"?>
<!-- Generator: Adobe Illustrator 29.6.1, SVG Export Plug-In . SVG Version: 9.03 Build 0)  -->
<svg version="1.1" id="Layer_1" xmlns="http://www.w3.org/2000/svg" xmlns:xlink="http://www.w3.org/1999/xlink" x="0px" y="0px"
	 viewBox="0 0 84.31 11.05" style="enable-background:new 0 0 84.31 11.05;" xml:space="preserve">
<style type="text/css">
	.st0{fill:#0E0C0A;}
</style>
<g>
	<path class="st0" d="M9.23,0h-7.1c-1.1,0-1.98,0.88-1.98,1.97v7.1c0,1.09,0.88,1.97,1.97,1.97h7.1c1.09,0,1.97-0.88,1.97-1.97v-7.1
		C11.2,0.88,10.32,0,9.23,0z"/>
	<path class="st0" d="M23.43,0h-7.1c-1.09,0-1.97,0.88-1.97,1.97v7.1c0,1.09,0.88,1.97,1.97,1.97h7.1c1.09,0,1.97-0.88,1.97-1.97
		v-7.1C25.41,0.88,24.52,0,23.43,0z"/>
	<path class="st0" d="M38.43,0h-7.1c-1.09,0-1.97,0.88-1.97,1.97v7.1c0,1.09,0.88,1.97,1.97,1.97h7.1c1.09,0,1.97-0.88,1.97-1.97
		v-7.1C40.41,0.88,39.52,0,38.43,0z"/>
	<g>
		<path class="st0" d="M52.98,0h-7.1c-1.09,0-1.97,0.88-1.97,1.97v7.1c0,1.09,0.88,1.97,1.97,1.97h7.1c1.09,0,1.97-0.88,1.97-1.97
			v-7.1C54.95,0.88,54.07,0,52.98,0z"/>
		<path class="st0" d="M67.18,0h-7.1c-1.09,0-1.97,0.88-1.97,1.97v7.1c0,1.09,0.88,1.97,1.97,1.97h7.1c1.09,0,1.97-0.88,1.97-1.97
			v-7.1C69.16,0.88,68.27,0,67.18,0z"/>
		<path class="st0" d="M82.18,0h-7.1c-1.09,0-1.97,0.88-1.97,1.97v7.1c0,1.09,0.88,1.97,1.97,1.97h7.1c1.09,0,1.97-0.88,1.97-1.97
			v-7.1C84.16,0.88,83.27,0,82.18,0z"/>
	</g>
</g>
</svg>
