<?xml version="1.0" encoding="utf-8"?>
<!-- Generator: Adobe Illustrator 29.6.1, SVG Export Plug-In . SVG Version: 9.03 Build 0)  -->
<svg version="1.1" id="Layer_1" xmlns="http://www.w3.org/2000/svg" xmlns:xlink="http://www.w3.org/1999/xlink" x="0px" y="0px"
	 viewBox="0 0 54.73 11.05" style="enable-background:new 0 0 54.73 11.05;" xml:space="preserve">
<style type="text/css">
	.st0{fill:#0E0C0A;}
</style>
<g>
	<path class="st0" d="M9.19,0h-7.1C1,0,0.11,0.88,0.11,1.97v7.1c0,1.09,0.88,1.97,1.97,1.97h7.1c1.09,0,1.97-0.88,1.97-1.97v-7.1
		C11.16,0.88,10.28,0,9.19,0z"/>
	<path class="st0" d="M23.4,0h-7.1c-1.09,0-1.97,0.88-1.97,1.97v7.1c0,1.09,0.88,1.97,1.97,1.97h7.1c1.09,0,1.97-0.88,1.97-1.97
		v-7.1C25.37,0.88,24.49,0,23.4,0z"/>
	<path class="st0" d="M38.44,0h-7.1c-1.09,0-1.97,0.88-1.97,1.97v7.1c0,1.09,0.88,1.97,1.97,1.97h7.1c1.09,0,1.97-0.88,1.97-1.97
		v-7.1C40.41,0.88,39.53,0,38.44,0z"/>
	<path class="st0" d="M52.65,0h-7.1c-1.09,0-1.97,0.88-1.97,1.97v7.1c0,1.09,0.88,1.97,1.97,1.97h7.1c1.09,0,1.97-0.88,1.97-1.97
		v-7.1C54.62,0.88,53.74,0,52.65,0z"/>
</g>
</svg>
