<?xml version="1.0" encoding="UTF-8"?>
<svg id="Layer_1" xmlns="http://www.w3.org/2000/svg" version="1.1" viewBox="0 0 624 125">
  <!-- Generator: Adobe Illustrator 29.6.1, SVG Export Plug-In . SVG Version: 2.1.1 Build 9)  -->
  <defs>
    <style>
      .st0 {
        fill: #513c2e;
      }
    </style>
  </defs>
  <path class="st0" d="M18.18,50.18c2.59-.59,4.54-1.83,5.86-3.73.88-1.32,1.76-3.56,2.64-6.74-2.44-1.42-4.86-2.86-7.25-4.32-3.42-2.25-5.3-4.2-5.64-5.86.1-.83,2.25-2,6.45-3.52,2.05-.73,4.61-1.54,7.69-2.42,11.03-2.88,19.34-5,24.9-6.37-6.1,19.53-11.79,36.13-17.07,49.81-6.25,16.16-12.96,30.52-20.14,43.07,1.27,0,3.2.05,5.79.15,2.59.1,4.51.15,5.79.15,3.22,0,5.42-1.42,6.59-4.25,2.54-4.3,5.54-11.16,9.01-20.58,2.54-7.18,5.08-14.35,7.62-21.53l9.3-27.03c2.54-7.47,4.25-12.82,5.13-16.04.73-2.68,1.15-4.15,1.25-4.39,1.12-1.37,2.05-2.24,2.78-2.64,2.05-1.71,3.05-4.08,3-7.1-.05-4.74-1.96-7.08-5.71-7.03-2.25.05-4.54,1.05-6.89,3-.83.49-2.83,1.1-6.01,1.83-18.9,4.49-30.27,7.4-34.13,8.72C6.09,17.83-.33,23.18-.13,29.38c.24,7.91,6.35,14.84,18.31,20.8"/>
  <path class="st0" d="M63,72.22c-1.56,1.76-2.76,3.15-3.59,4.17l-4.69,5.27c-.88.63-1.32,1.44-1.32,2.42-.68,1.12-1,2.22-.95,3.3.05.93.22,1.54.51,1.83l.29,1.03c.2.73.78,1.59,1.76,2.56.88.59,1.76.88,2.64.88.73,0,1.73-.24,3-.73,1.51-1.51,2.71-2.95,3.59-4.32,0,14.4,4.34,21.61,13.04,21.61.73-.05,1.32-.11,1.76-.18.44-.07.95-.11,1.54-.11,2.68-1.81,4.69-4.13,6.01-6.96.15,2.15.95,3.91,2.42,5.27.63.59,1.37.95,2.2,1.1.63.39,1.44.59,2.42.59,1.37,0,2.66-.29,3.88-.88,3.42-1.66,7.81-4.25,13.18-7.76,5.86-3.81,9.85-6.81,11.97-9.01,2.12-2.2,3.19-4.54,3.19-7.03,0-1.51-.45-2.86-1.36-4.03-.9-1.17-2.09-1.76-3.55-1.76-1.37,0-2.56.59-3.59,1.76l-7.47,5.57c-3.37,2.49-5.64,4.15-6.81,4.98,4.1-10.35,6.81-17.16,8.13-20.43.59-1.51.88-2.61.88-3.3,0-3.56-1.86-5.32-5.57-5.27-3.27.05-5.86,1.81-7.76,5.27-6.4,11.72-12.11,20.02-17.14,24.9-1.37.93-2.42,1.46-3.15,1.61-1.66-.34-2.39-3.03-2.2-8.06.19-5.03,1.64-8.98,4.32-11.87,3.91-4.1,8.4-7.52,13.48-10.25,5.71-2.98,11.11-4.47,16.19-4.47,1.66.15,3.42.69,5.27,1.61.63.29,2.24,1.22,4.83,2.78,1.41-1.9,2.76-3.91,4.03-6.01v-2.71c0-2.64-1.56-4.71-4.69-6.23-3.32-1.61-6.3-2.39-8.93-2.34-4.3.1-9.69,1.37-16.19,3.81-7.86,2.98-16.02,7.91-24.46,14.8-2.44,2.05-4.81,4.25-7.1,6.59"/>
  <path class="st0" d="M204.75,84.43c-5.47-9.03-9.84-17.97-13.11-26.81.39-1.61,1.24-3.44,2.56-5.49,10.74-7.32,20.6-15.72,29.59-25.2,4.49-4.73,8.23-9.69,11.21-14.87.49-.68,1.15-1.83,1.98-3.44v-1.39c0-1.86-1-3.25-3-4.18-.69-.68-1.73-1.02-3.15-1.02-3.12,0-5.18,1.2-6.15,3.59-7.47,10.69-15.23,19.24-23.29,25.64.15-.59,1.1-2.98,2.86-7.18,4.44-10.64,7.15-17.99,8.13-22.04h-7.32c-2.83,0-4.93,1.25-6.3,3.73-8.35,21.78-13.21,34.18-14.58,37.21-3.42,2.78-5.57,5.23-6.44,7.32l-.88,2.12c.78,3.42,1.17,5.61,1.17,6.59-.59,1.47-1.34,3.54-2.27,6.23l-4.47,13.33c-4.74,13.87-8.3,24.27-10.69,31.2,1.17.1,3.59.15,7.25.15.39,0,1.02.07,1.9.22.88.15,1.54.22,1.98.22,1.03-.05,1.78-.37,2.27-.95.39-1.56,1.17-4.39,2.34-8.5,3.81-13.38,6.86-22.75,9.15-28.12,5.47,10.06,9.52,17.63,12.16,22.71,3.9,6.98,7.96,12.23,12.16,15.75,1.85,1.56,4.25,2.32,7.18,2.27,3.37-.05,6.57-2.08,9.59-6.08-7.18-3.17-14.45-10.84-21.83-23"/>
  <path class="st0" d="M286.12,101.86c5.86-3.81,9.85-6.81,11.98-9.01,2.12-2.2,3.19-4.54,3.19-7.03,0-1.51-.45-2.86-1.36-4.03-.9-1.17-2.09-1.76-3.55-1.76-1.37,0-2.56.59-3.59,1.76l-7.47,5.57c-3.37,2.49-5.64,4.15-6.81,4.98,4.1-10.35,6.81-17.16,8.13-20.43.59-1.51.88-2.61.88-3.3,0-3.56-1.86-5.32-5.57-5.27-3.27.05-5.86,1.81-7.76,5.27-6.4,11.72-12.11,20.02-17.14,24.9-1.37.93-2.42,1.46-3.15,1.61-1.66-.34-2.39-3.03-2.2-8.06.19-5.03,1.63-8.98,4.32-11.86,3.91-4.1,8.4-7.52,13.48-10.25,5.71-2.98,11.11-4.47,16.19-4.47,1.66.15,3.42.69,5.27,1.61.63.29,2.25,1.22,4.83,2.78,1.42-1.91,2.76-3.91,4.03-6.01v-2.71c0-2.64-1.56-4.71-4.69-6.23-3.32-1.61-6.3-2.39-8.94-2.34-4.3.1-9.69,1.37-16.19,3.81-7.86,2.98-16.02,7.91-24.46,14.79-2.44,2.05-4.81,4.25-7.1,6.59-1.56,1.76-2.76,3.15-3.59,4.17l-4.69,5.27c-.88.64-1.32,1.44-1.32,2.42-.68,1.12-1,2.22-.95,3.3.05.93.22,1.54.51,1.83l.29,1.02c.2.73.78,1.59,1.76,2.56.88.59,1.76.88,2.64.88.73,0,1.73-.24,3-.73,1.51-1.51,2.71-2.95,3.59-4.32,0,14.4,4.35,21.61,13.04,21.61.73-.05,1.32-.11,1.76-.18.44-.07.95-.11,1.54-.11,2.69-1.81,4.69-4.13,6.01-6.96.15,2.15.95,3.91,2.42,5.27.63.59,1.37.95,2.2,1.1.63.39,1.44.59,2.42.59,1.37,0,2.66-.29,3.88-.88,3.42-1.66,7.81-4.25,13.18-7.76"/>
  <path class="st0" d="M622.78,81.79c-.9-1.17-2.09-1.76-3.55-1.76-1.37,0-2.56.59-3.59,1.76l-7.47,5.57c-3.37,2.49-5.64,4.15-6.81,4.98,4.1-10.35,6.81-17.16,8.13-20.43.59-1.51.88-2.61.88-3.3,0-3.56-1.86-5.32-5.57-5.27-3.27.05-5.86,1.81-7.76,5.27-6.4,11.72-12.11,20.02-17.14,24.9-1.37.93-2.42,1.46-3.15,1.61-1.66-.34-2.39-3.03-2.2-8.06.19-5.03,1.64-8.98,4.32-11.86,3.91-4.1,8.4-7.52,13.48-10.25,5.71-2.98,11.11-4.47,16.19-4.47,1.66.15,3.42.68,5.27,1.61.63.29,2.25,1.22,4.83,2.78,1.42-1.9,2.76-3.91,4.03-6.01v-2.71c0-2.64-1.56-4.71-4.69-6.23-3.32-1.61-6.3-2.39-8.93-2.34-4.3.1-9.69,1.37-16.19,3.81-7.86,2.98-16.01,7.91-24.46,14.79-2.44,2.05-4.81,4.25-7.1,6.59-1.56,1.76-2.76,3.15-3.59,4.17l-3.89,4.37c-.63.21-1.14.32-1.53.32-1.51,1.32-3.69,2.78-6.52,4.39-2.83,1.61-4.96,3.05-6.37,4.32,1.76-3.52,2.98-6.1,3.66-7.76l4.91-12.08c1.95-4.79,3.64-8.76,5.05-11.94.49-1.07.73-2.12.73-3.15,0-1.76-.51-3.3-1.54-4.61-1.02-1.32-2.39-1.98-4.1-1.98-2.39,0-4.49,1.49-6.3,4.47-1.46,2.98-2.52,5.22-3.15,6.74-1.32,2.15-3.22,4.59-5.71,7.32-.39.39-2.54,2.61-6.44,6.67-3.32,3.42-5.44,5.62-6.37,6.59-.86.78-1.48,1.68-1.88,2.7l-.09.08c-2.2,2.05-3.83,3.81-4.91,5.27,2.44-6.4,3.96-12.55,4.54-18.46,0-.63.02-1.64.07-3,.05-1.37.07-2.42.07-3.15-.15-10.11-1.73-19.51-4.76-28.2-1.61-4.54-2.74-7.47-3.37-8.79,1.42,1.08,2.83,1.61,4.25,1.61,1.71,0,3.25-.62,4.61-1.87,1.37-1.25,2.03-2.72,1.98-4.43-.05-2.1-1.05-3.96-3-5.57-.93-.78-2.93-2.1-6.01-3.96-6.84-4.15-11.7-6.23-14.58-6.23-.78,0-1.32.15-1.61.44-1.12,1.17-1.68,2.74-1.68,4.69,0,3.12,1.1,6.76,3.3,10.91,7.52,14.21,11.28,27.27,11.28,39.18-.2,3.42-.29,6.01-.29,7.76-.05,2.1-1.29,5.86-3.74,11.28-2.25,5.03-4.15,8.62-5.71,10.77-2.44,4.05-5.35,6.15-8.72,6.3-1.86-.15-2.71-2.69-2.56-7.62.44-14.7,5.59-23.71,15.45-27.03,2.68-.49,4.03-2.54,4.03-6.15,0-4.35-1.78-6.49-5.35-6.45-1.81.05-3.03.15-3.66.29-4.88,2-9.77,6.62-14.65,13.84-1.51,1.66-2.96,3.3-4.32,4.91l-6.52,7.54c-1.11,1.27-2.64,2.92-4.58,4.96-.2-.02-.4-.05-.62-.05-1.27,0-2.61.42-4.03,1.25-4.93,3.56-8.25,5.71-9.96,6.45-.88-.34-1.56-.59-2.05-.73,2.44-4.1,4.82-9.18,7.14-15.23,2.32-6.05,3.53-11.84,3.63-17.36.05-1.81-.15-3.1-.59-3.88-.64-1.07-1.78-1.59-3.44-1.54-2.83.05-5.64,2.05-8.42,6.01-2.1,3.03-3.74,6.32-4.91,9.89-1.61,6.74-2.98,12.74-4.1,18.02-2,3.17-3.64,5.37-4.91,6.59l-1.9,2.05c-1.71,1.86-3.13,2.78-4.25,2.78-.93,0-1.93-.41-3-1.25-.49-.29-.73-.63-.73-1.03.1-2.64.29-4.69.59-6.15.88-2.78,2.15-6.01,3.81-9.67l5.64-12.53c1.71-3.76,3.44-8.25,5.2-13.48-3.62-1.22-7.45-1.83-11.5-1.83-1.61,3.03-2.61,5.03-3,6.01l-2.34,5.79c-.69,1.71-1.1,2.78-1.25,3.22-4.49,5.86-7.52,9.74-9.08,11.65-2.2,2.64-4.05,4.71-5.57,6.23-1.06,1.45-1.86,2.78-2.41,4-.73.64-1.37,1.19-1.92,1.64l-.07.07c2.39-5.86,4.05-10.28,4.98-13.26.78-2.49,1.17-4.59,1.17-6.3.05-2.78-.46-5.32-1.54-7.62-1.37-2.88-3.32-4.3-5.86-4.25-3.08.05-5.74,1.25-7.98,3.59-4.59,4.83-6.88,11.55-6.88,20.14.49,5.23,1,8.84,1.54,10.84-2.74,2.88-5.03,4.42-6.88,4.61-.64-.15-1.12-.49-1.47-1.02-.88-2.83-1.34-5.08-1.39-6.74.15-3.86,1.07-8.03,2.78-12.52,4.2-11.13,10.96-17.97,20.29-20.51,1.51-.63,2.27-2.93,2.27-6.88-.83-2.64-2.17-4-4.03-4.1-1.03-.05-1.98.07-2.86.37-10.45,6.64-17.9,13.09-22.34,19.34-7.03,7.72-12.21,13.6-15.53,17.65-1.71,2.3-2.56,4.44-2.56,6.45,0,.78.15,1.44.44,1.98,1.37,2.59,2.83,3.88,4.4,3.88.83,0,1.77-.48,2.82-1.43,1.05-.95,2.11-2.26,3.19-3.92-.2,2.25-.29,3.88-.29,4.91.05,10.74,4.49,16.01,13.33,15.82,3.51-.1,6.88-1.27,10.11-3.52,1.61-1.12,3.34-2.61,5.2-4.47.98.29,1.83.44,2.56.44,3.58,0,9.16-2.89,16.73-8.65-.02.13-.04.25-.07.38-.56,3.37-.82,5.88-.77,7.54.24,6.4,3,9.59,8.28,9.59,1.07,0,2.05-.07,2.93-.22,5.22-.78,11.18-5.23,17.87-13.33.34.2.9.81,1.68,1.83,1.76,2.3,3.47,3.44,5.13,3.44,3.47,0,6.13-.34,7.98-1.02,1.66-.59,3.52-1.81,5.57-3.66,1.43-1.28,2.57-2.28,3.41-3.01,1.25-.21,3.18-.89,5.81-2.05,1.07-2.1,1.76-3.15,2.05-3.15.1,13.67,4.86,20.43,14.28,20.29,3.03-.05,5.74-.73,8.13-2.05,2.15-1.17,4.2-2.95,6.15-5.35.88.29,1.8.44,2.78.44,4.78,0,10.59-3.44,17.43-10.33,1.14-1.14,1.89-2.65,2.27-4.51,2.17-1.74,4.66-4.43,7.47-8.09-.59,1.27-1.93,3.59-4.03,6.96-4.2,6.64-6.3,11.67-6.3,15.09,0,4.39,2.05,6.59,6.15,6.59.68,0,1.37-.1,2.05-.29,2.73-.78,3.86-1.17,3.37-1.17,9.28-4.59,16.06-8.81,20.36-12.67.43-.38.81-.77,1.17-1.17.55-.12,1.18-.31,1.91-.59,1.51-1.51,2.71-2.95,3.59-4.32,0,14.4,4.35,21.61,13.04,21.61.73-.05,1.32-.11,1.76-.18.44-.07.95-.11,1.54-.11,2.69-1.81,4.69-4.13,6.01-6.96.15,2.15.95,3.91,2.42,5.27.63.59,1.37.95,2.2,1.1.63.39,1.44.59,2.42.59,1.37,0,2.66-.29,3.88-.88,3.42-1.66,7.81-4.25,13.18-7.76,5.86-3.81,9.85-6.81,11.97-9.01,2.12-2.2,3.19-4.54,3.19-7.03,0-1.51-.45-2.86-1.36-4.03M398.91,75.13c-.1.69-.22,1.1-.37,1.25-.69,2.44-1.12,3.91-1.32,4.4v-3.59c.88-3.03,1.46-4.54,1.76-4.54.1.05.15.37.15.95-.1.63-.17,1.15-.22,1.54"/>
  <path class="st0" d="M352.49,95.58c-.59-2.7-.12-5.5.36-8.22,3.41-19.36,5.8-31.67,8.91-51.08.28-1.75.67-3.9.82-5.81l.11-2.48c-.15-2.72-.01-5.11-.44-6.14-6.06-11.22-24.39-4.44-32.84.49-9.12,5.32-16.58,11.61-22.89,21.45-2.19,3.41-2.06,8.16.37,11.41,1.87,2.51,5.49,3.21,8.52,2.39,1-.27,1.5-1.03,1.74-2.04.27-1.15-.21-2.22,0-3.38,1.92-10.15,11.72-18.39,21.54-21.61,2-.66,6.09-1.9,8.13-1.38,1.92.49,4.43,4.45,3.7,7.88-1.79,8.46-9.09,19.24-13.95,26.4-3.96,5.83-8.48,11.23-13.23,16.44l-.18.15c-.69.78-1.39,1.55-2.1,2.32-1.62,1.73-3.25,3.45-4.89,5.16-4.37,4.44-9.04,8.79-14.22,13.2-10.84,9.21-20.16,14.18-27.98,14.92,1.61,4.75,4,7.69,7.18,8.8,2.77.97,5.27,1.01,7.53.11,5.1-2.01,10.6-5.71,16.51-11.1,4.09-3.97,16.27-16.91,17.92-18.47l5.3-6.29c5.03-5.49,10.33-11.56,13.35-15.59,1.55-1.26,1.38.02,1.42,1.25.13,3.74-.78,7.59-1.56,11.23-.96,4.46-2.28,8.83-3.17,13.3-.36,1.78-.66,3.57-.9,5.37-.15,1.11-.56,2.5.45,3.32,1.71,1.39,5.22.5,7.19.36,3.56-.23,8.52-4.19,9.64-7.58.87-2.65-1.75-2.06-2.35-4.79"/>
</svg>