<?xml version="1.0" encoding="UTF-8"?>
<svg id="logo_6_s" xmlns="http://www.w3.org/2000/svg" version="1.1" viewBox="0 0 73.95 156.67">
  <!-- Generator: Adobe Illustrator 29.6.1, SVG Export Plug-In . SVG Version: 2.1.1 Build 9)  -->
  <path d="M15.91,151.5c0-.19-1.53-1.53-2.11-1.92-6.89-6.7-11.11-15.13-11.11-24.71,0-.96.38-2.11,1.53-2.11.77,0,1.53.38,1.53,1.34-.38,9.58,3.45,19.34,11.88,24.9,4.98,2.87,14.36,3.45,19.73,3.45,17.81,0,31.99-11.49,31.99-30.07,0-4.79-1.34-9.96-3.45-14.56-4.02-7.85-7.66-14.56-13.98-20.49-4.6-4.41-10.73-7.47-16.09-10.53C20.51,68.37,2.12,58.6,2.12,39.07v-2.11c.19-1.53,1.72-9,2.11-10.53,0-.19.19-.77.38-.96l3.64-7.66,1.53-1.92,7.09-7.09c2.87-1.34,5.36-4.02,8.04-5.36,3.06-1.34,10.15-1.72,13.22-1.72,2.11,0,5.94,0,7.66.19,4.41.77,7.66,2.87,11.11,4.98,5.55,3.64,6.7,6.13,9.19,11.87.96,2.11,1.34,2.68,1.34,4.98-1.15,0-1.72-.77-2.49-1.72-1.92-4.21-3.06-7.28-6.13-10.53-.19,0-.96-.77-1.34-.96-7.09-4.6-9.58-6.7-19.34-6.7C19.36,3.83,4.42,21.26,4.42,39.65c0,.77.19,2.87.19,2.87.57,5.94,4.02,8.62,6.7,13.41,6.13,7.09,13.41,10.73,21.07,15.51,4.21,2.49,7.85,5.17,12.07,6.9,1.15.96,6.89,4.79,8.04,5.75,3.64,2.87,6.32,6.7,9.19,10.15,4.98,8.24,10.15,18.2,10.15,27.96,0,10.34-4.02,20.49-13.02,26.24-1.34.96-4.21,2.87-5.94,3.64-.19,0-1.72.57-1.92.57s-.57.19-.57.38c-5.17.96-9.96,1.92-15.13,1.92h-2.11l-8.81-.96c-1.92-.58-6.9-1.72-8.43-2.49h0Z"/>
</svg>