<?xml version="1.0" encoding="UTF-8"?>
<svg id="logo_12_f" xmlns="http://www.w3.org/2000/svg" version="1.1" viewBox="0 0 115.63 156.67">
  <!-- Generator: Adobe Illustrator 29.6.1, SVG Export Plug-In . SVG Version: 2.1.1 Build 9)  -->
  <path d="M29.19,113.38v-7.28c0-3.83-.19-14.75-.38-15.51,0-1.53-1.15-12.64-1.34-14.17-.38-6.32,0-12.83-.19-19.15l-1.15-16.28c-.57-11.49-.77-22.98-2.11-34.28,0-.19-.19-1.34-.38-1.53,0-.19-.58-1.72-.58-1.92-.19-.77,1.53-1.53,1.92-1.53,2.87,0,5.94.38,8.62.57,14.56.77,29.3,1.53,43.86,3.06,1.72.38,15.13-.38,15.13,2.3,0,.77-.58,1.92-1.72,1.92-1.92,0-3.45-1.15-6.13-.96l-40.99-3.45h-17.05l2.68,49.61v2.49c0,1.34.19,7.09.38,8.43.19.38,1.34.57,1.53.57,4.41.38,9,.77,13.41.77h1.53c.58-.19,7.66-.38,8.62-.38,1.15,0,7.85,0,9,.19h1.34l12.26.38c.19-.19,1.92-.57,2.3-.57.96-.19,2.49.96,2.49,2.11,0,.77-.96,1.15-1.34,1.34h-3.64c-2.87,0-5.55-.38-8.43-.38-1.72,0-3.45.38-5.36.38-1.15,0-2.49-.57-4.02-.57h-18.39c-2.3-.57-5.17-.57-7.28-.57-.57,0-2.87.19-3.06.19l-.96.38v1.92c1.72,21.64,1.72,43.09,3.26,64.54-.19,5.94.77,11.68.77,17.43,0,1.15-.19,1.53-1.34,1.53-1.34,0-1.72-.38-1.72-2.11v-6.7l-1.53-32.75Z"/>
</svg>