<?xml version="1.0" encoding="UTF-8"?>
<svg id="logo_2_e" xmlns="http://www.w3.org/2000/svg" version="1.1" viewBox="0 0 110.67 156.67">
  <!-- Generator: Adobe Illustrator 29.6.1, SVG Export Plug-In . SVG Version: 2.1.1 Build 9)  -->
  <path d="M29.67,152.55h-13.22c-.77,0-1.34-1.15-1.34-1.72,0-1.34,1.72-.77,2.3-1.72v-3.45c0-.19-.38-1.72-.38-1.92,0,0,.19-.57.38-.57v-4.6c0-4.02,0-6.32-.38-10.53v-31.98c-.96-7.28-.38-14.75-.57-22.03,0-1.72-.57-15.71-.57-17.62v-27.77c0-1.92-.58-15.9-.58-17.62-.19-1.53-.38-4.02-.38-5.55v-.38c.19-.38,1.53-1.72,2.11-1.72,1.92-.19,5.36-.19,7.66-.77h35.43c2.87-.19,6.13-.57,9-.57h.19c.38,0,1.72.19,2.11.19h9.96c.19,0,1.72-.19,1.92-.19h.19c1.15,0,1.72.77,1.72,1.72,0,1.34-.96,2.11-2.11,2.11-3.64,0-7.28-1.15-10.92-1.15h-3.64c-14.75.38-29.5.19-44.24.77-1.34.19-6.13.19-6.51,1.15.38,10.15.57,20.3.57,30.45,0,4.79-.38,9.96-.38,14.94v1.72c.38,7.47.19,15.32,1.15,22.98h2.68c6.32,0,12.26-1.15,18.39-1.34h23.56c2.68-.57,6.32-.38,8.81-.38h5.55c1.53,0,8.81.57,10.53.77.77.38.96.57.96,1.15,0,1.15-.58,2.3-1.92,2.3-.77,0-1.15,0-2.3-.77-1.15,0-6.7-.77-7.66-.96-1.15,0-4.79-.38-5.17-.38-.96.19-9,.77-9.96.77h-2.68c-2.3,0-4.6-.38-6.89-.38-4.6,0-9.58.57-14.37.38l-19.34,1.92v46.54c0,1.15.19,11.49.19,12.64v.38c0,.77.38,6.32.38,6.89,0,2.11-.38,3.45,2.3,3.64.19,0,3.26-.19,3.64,0,.19,0,2.3.19,2.49.19.57,0,5.55-.58,5.94-.58h2.87c9,0,18,.58,27.01.77,4.21.19,8.81-.38,12.83.77,5.94-.19,11.49.38,17.24.19,1.53.38,1.53,1.15,1.53,2.3s-1.34,1.15-2.3,1.15h-.19c-2.49-.96-5.55-.77-8.43-.96-15.51-.57-31.6-1.72-47.31-1.72-2.68,0-5.36,0-7.85.57Z"/>
</svg>