<?xml version="1.0" encoding="UTF-8"?>
<svg id="logo_5_o" xmlns="http://www.w3.org/2000/svg" version="1.1" viewBox="0 0 113.83 161.14">
  <!-- Generator: Adobe Illustrator 29.6.1, SVG Export Plug-In . SVG Version: 2.1.1 Build 9)  -->
  <path d="M1,95.13c-.58-3.83-.38-7.47-.38-11.3,0-20.11,3.64-40.99,15.71-57.27.19-.19.57-.96.77-.96l6.13-7.28c5.36-6.51,17.05-10.34,25.28-13.02.77-.19.96-.77,1.92-.96,2.3-.19,4.6-.38,6.9-.38,3.06,0,4.6,0,7.85.38,1.15.96,2.87.96,4.02,1.34,8.24,2.11,12.07,5.75,18.58,10.53,1.72,1.15,3.83,2.68,4.6,4.79,2.49,3.45,5.94,8.81,8.81,12.45,0,.19.77.77.96.96,4.21,7.28,6.32,15.13,8.04,23.17,1.53,5.75,3.06,11.49,3.06,17.24v.19l-1.34,22.79c-.77,3.06-.57,5.94-1.72,8.62-3.45,9.58-7.09,18.77-11.68,27.77l-1.34,1.72c-2.3,2.87-4.6,6.32-7.47,8.81-1.92,1.72-3.83,2.68-5.94,3.83l-7.66,3.83c-7.66,3.06-16.28,4.79-24.52,4.79-10.34,0-18.77-3.06-27.01-9.19-.19-.19-2.68-2.68-3.64-3.26-.19,0-.38-.19-.38-.19l-8.24-10.34-2.11-3.64-3.45-7.47c-1.53-3.06-2.3-7.85-3.06-10.73l-2.68-17.24ZM51.18,154.12c10.15,0,16.85-1.53,26.24-5.55,2.87-1.15,6.51-2.49,8.62-4.4,8.24-7.09,13.02-15.9,16.66-25.67,1.72-4.41,4.41-9.58,5.36-13.79,1.72-9.19,1.92-17.81,2.49-27.58v-2.11c0-8.43-2.49-16.28-4.79-24.32-1.72-5.75-3.06-10.15-5.94-15.32-2.87-4.6-6.7-8.81-9.77-13.22-2.11-3.26-5.36-5.17-8.24-7.28-4.41-3.06-5.94-4.02-10.73-6.13-.38,0-.96-.19-1.15-.19h-1.53c-.19-.19-1.72-.77-1.92-.77-1.15-.38-4.02-1.15-5.36-1.15h-.77c-1.15,0-5.94.38-6.9.38-2.49,1.15-5.55.96-8.43,1.72-7.09,2.87-13.79,6.13-19.73,10.92C9.81,36.71,4.83,52.61,3.3,75.02c0,1.92-.38,10.73-.19,12.83,0,9.38,1.92,19.54,4.41,29.11.19.77.96,3.64,1.15,3.83l4.41,9.19,1.72,2.49c0,.19.19.57.19.77,9.77,12.26,19.54,20.88,36.2,20.88Z"/>
</svg>