<?xml version="1.0" encoding="UTF-8"?>
<svg id="logo_7_u" xmlns="http://www.w3.org/2000/svg" version="1.1" viewBox="0 0 110.67 156.67">
  <!-- Generator: Adobe Illustrator 29.6.1, SVG Export Plug-In . SVG Version: 2.1.1 Build 9)  -->
  <path d="M13.2,103.04c-.57-2.11-1.72-6.7-1.72-6.89v-.38c-3.45-19.73-4.02-40.03-4.02-60.14,0-10.53.77-21.07.58-31.41,0-1.15.38-2.3,1.53-2.3.57,0,.77.19,1.15.57v4.02c0,9.39-.77,18.96-.77,28.54,0,10.53.77,21.26.77,31.79l1.34,17.81v.57l7.28,33.33c2.11,10.34,9.96,23.56,19.34,29.3,4.4,2.68,8.81,3.26,13.6,4.02h13.22c4.79,0,9.58-2.3,13.6-4.6,4.79-2.49,8.81-6.51,11.49-11.3,1.34-1.92,1.72-4.41,2.3-6.51l1.34-4.02,2.87-12.26c.57-3.26.19-7.09,1.53-10.53.19-2.87,1.34-15.9,1.34-18.77v-7.66c0-.57.77-6.13.77-6.9v-1.34c0-4.98-.38-9.96-.38-14.94s.38-9.38.38-13.98v-5.94c-.96-4.02-.57-8.04-.77-12.07,0-5.55-.96-11.3-.96-16.66,0-.38.19-1.34.19-1.53,0-.38.77-.38.96-.38.77,0,1.34.19,1.72.77-.19,6.32.57,12.26.77,18.39,0,4.02-.38,7.47.19,11.3v29.3c0,.57.38,5.55.38,6.13v.38c0,.38-.58,4.98-.58,5.55v9.58c0,1.15-.96,9.96-.96,11.11-.19.38-.19,1.92,0,2.3l-1.92,14.37c-1.15,3.64-1.34,7.47-2.3,10.92-.38,2.87-1.53,5.36-2.49,8.24,0,.38-.57,3.83-.77,4.41-.77,2.11-2.3,3.45-3.64,5.17-1.72,2.11-3.26,4.6-5.36,6.32-3.83,2.68-7.09,4.02-11.3,5.55-6.32,2.3-9,2.49-16.47,2.49-19.34,0-29.3-9-37.35-26.05-1.15-2.3-2.49-6.9-2.87-9.19-.77-2.3-3.26-13.22-3.83-15.51,0-.19-.19-.77-.19-.96Z"/>
</svg>