<?xml version="1.0" encoding="UTF-8"?>
<svg id="logo_3_l" xmlns="http://www.w3.org/2000/svg" version="1.1" viewBox="0 0 83 156.67">
  <!-- Generator: Adobe Illustrator 29.6.1, SVG Export Plug-In . SVG Version: 2.1.1 Build 9)  -->
  <path d="M21.77,146.42c.19-1.92.19-11.11,0-13.02,0-.96-.58-8.81-.58-9.77-.38-4.98,0-10.15-.96-14.94l-2.49-52.1c.19-3.64-.57-7.28-1.15-10.92-.38-5.17-.19-10.53-.77-15.71-.38-4.21-1.15-8.24-.96-12.45-.38-1.72-1.34-9.38-1.53-11.11,0-.19-.19-1.53-.19-2.11,0-.38.19-1.72.19-2.11s.77-.38.96-.38c.38,0,.57,0,.77.38.96,1.53.58,3.83.77,5.36l1.15,8.62v.77c.77,17.43,3.64,34.86,3.26,52.29l1.92,29.11c-.19,4.41.57,9.19.96,13.79.77,10.92.96,21.83,1.34,32.75.38.96,0,4.21.77,4.6,7.85.77,15.9.58,23.56.96h1.15c4.79,0,9.58,1.15,14.75,1.15,1.15,0,2.49-.19,3.45-.19,1.34,0,1.72.96,1.72,2.11,0,.96-.96,1.34-1.92,1.34-4.21,0-8.62-.77-12.83-1.34-7.47-1.15-15.32-.38-23.17-.58-.38,0-3.26-.38-3.64-.38h-5.55c-1.15-1.92,0-4.21-.96-6.13h-.02Z"/>
</svg>