<?xml version="1.0" encoding="UTF-8"?> <svg xmlns="http://www.w3.org/2000/svg" width="133.484" height="26" viewBox="0 0 133.484 26"><g id="logo" transform="translate(0 0)"><g id="group" transform="translate(0 0)"><path id="Path_1" data-name="Path 1" d="M105.834,0c7.86,0,13.554,5.443,13.554,12.95S113.694,26,105.834,26c-7.91,0-13.5-5.543-13.5-13.05S97.924,0,105.834,0m0,7.155c-3.426,0-5.542,2.419-5.542,5.795,0,3.425,2.116,5.895,5.542,5.895s5.593-2.469,5.593-5.895c0-3.376-2.167-5.795-5.593-5.795" transform="translate(-46.987 0)"></path><path id="Path_2" data-name="Path 2" d="M218.145,1.746h8.163V15.2l8.213-13.453h9.019l-6.953,10.631L244.5,26.082h-9.271l-5.795-10.531h-3.123V26.082h-8.163Z" transform="translate(-111.013 -0.888)"></path><path id="Path_3" data-name="Path 3" d="M169.619.208a15.369,15.369,0,0,0-4.864.755h-7.279V25.3h8.163V11.519c.01-2.553,1.519-4.106,3.98-4.106,2.57,0,3.981,1.563,3.981,4.131V25.3h8.162V10.839c0-6.7-5.24-10.631-12.143-10.631" transform="translate(-80.139 -0.106)"></path><path id="Path_4" data-name="Path 4" d="M33.173.963A15.559,15.559,0,0,0,28.266.208a13.677,13.677,0,0,0-8.041,2.368A13.686,13.686,0,0,0,12.143.208C5.34.208,0,4.139,0,10.84V25.3H8.162V11.544c0-2.568,1.512-4.131,3.981-4.131,2.57,0,3.981,1.563,3.981,4.131V25.3h8.162V11.544c0-2.568,1.512-4.131,3.981-4.131,2.561,0,3.97,1.552,3.98,4.1V25.3h8.163V.963Z" transform="translate(0 -0.106)"></path></g></g></svg> 