<?xml version="1.0" encoding="UTF-8"?>
<svg id="Layer_1" xmlns="http://www.w3.org/2000/svg" version="1.1" viewBox="0 0 1266.34 156.67">
  <!-- Generator: Adobe Illustrator 29.6.1, SVG Export Plug-In . SVG Version: 2.1.1 Build 9)  -->
  <path d="M107.8,146.9c0-18-3.26-35.82-2.68-53.82,0-.38-.19-1.15-.77-1.34h-2.49c-.19,0-1.72-.77-1.92-.77-4.21-.57-9.19-.57-13.6-.57-.38,0-1.53.19-1.72.19h-14.56c-1.34-.19-10.53-1.34-11.68-1.34-.57-.19-4.6,0-5.17,0-9-.38-18-.77-27.01-.77h-7.28l-1.15.38v2.87c2.11,11.11,2.3,21.26,3.26,32.56.57,8.24,1.72,16.66,1.72,25.09,0,.38-.19,2.68-.19,3.26-.19.57-.58.77-1.53.77s-1.34-.19-1.34-1.53c0-2.3.19-4.6.19-7.09,0-3.26-.96-6.51-.57-9.77l-1.92-30.45c.19-1.15-.38-3.45-.57-4.41l-3.26-30.84c-.19-.96-.38-1.92-.38-2.87L6.67,19.92c-.77-2.87-.96-5.55-1.53-8.43-.77-2.68-2.11-5.55-2.11-8.43,0-.96.38-1.53,1.53-1.53,2.11,0,1.15,2.68,1.34,4.02l1.34,4.4,6.89,42.14v1.34l2.68,24.9v.77c0,.77.57,4.41.57,5.17,1.15,1.92,8.81,1.53,10.73,1.72,10.15.19,20.49-.19,30.64.38,1.15.19,11.3,1.34,12.64,1.34.19,0,3.45.19,4.79.19,3.06,0,6.13-.38,9.38-.38,4.79,0,9.19.57,13.98.57.77,0,1.34-.38,2.11-.38,1.34,0,2.3.58,3.45.77.38-3.06.38-4.41.38-7.28,0-9-.38-17.81-.38-26.81,0-7.66.38-15.13.38-22.6,0-8.43-.19-14.94-1.72-22.98v-.96l-.19-6.51c0-.19.77-.19.96-.19.96,0,1.15.38,1.34,1.15,0,4.02.38,8.24,1.34,12.26,0,2.87.57,15.9.57,18.58v.19c0,7.09-.38,13.98-.38,21.07,0,11.3.57,22.79.38,34.09.38.96.38,1.53.38,2.11,0,.96,0,1.34-.38,2.11v6.13c0,4.4.38,9,.38,13.41l2.11,32.37c0,3.26.38,5.94.38,8.81,0,1.15-.57,2.11-1.72,2.11-.96,0-1.53-1.15-1.53-2.3,0-1.92.38-4.21.38-6.32Z"/>
  <path d="M142.28,152.08h-13.22c-.77,0-1.34-1.15-1.34-1.72,0-1.34,1.72-.77,2.3-1.72v-3.45c0-.19-.38-1.72-.38-1.92,0,0,.19-.57.38-.57v-4.6c0-4.02,0-6.32-.38-10.53v-31.98c-.96-7.28-.38-14.75-.57-22.03,0-1.72-.57-15.71-.57-17.62v-27.77c0-1.92-.58-15.9-.58-17.62-.19-1.53-.38-4.02-.38-5.55v-.38c.19-.38,1.53-1.72,2.11-1.72,1.92-.19,5.36-.19,7.66-.77h35.43c2.87-.19,6.13-.57,9-.57h.19c.38,0,1.72.19,2.11.19h9.96c.19,0,1.72-.19,1.92-.19h.19c1.15,0,1.72.77,1.72,1.72,0,1.34-.96,2.11-2.11,2.11-3.64,0-7.28-1.15-10.92-1.15h-3.64c-14.75.38-29.5.19-44.24.77-1.34.19-6.13.19-6.51,1.15.38,10.15.57,20.3.57,30.45,0,4.79-.38,9.96-.38,14.94v1.72c.38,7.47.19,15.32,1.15,22.98h2.68c6.32,0,12.26-1.15,18.39-1.34h23.56c2.68-.57,6.32-.38,8.81-.38h5.55c1.53,0,8.81.57,10.53.77.77.38.96.57.96,1.15,0,1.15-.58,2.3-1.92,2.3-.77,0-1.15,0-2.3-.77-1.15,0-6.7-.77-7.66-.96-1.15,0-4.79-.38-5.17-.38-.96.19-9,.77-9.96.77h-2.68c-2.3,0-4.6-.38-6.89-.38-4.6,0-9.58.57-14.37.38l-19.34,1.92v46.54c0,1.15.19,11.49.19,12.64v.38c0,.77.38,6.32.38,6.89,0,2.11-.38,3.45,2.3,3.64.19,0,3.26-.19,3.64,0,.19,0,2.3.19,2.49.19.57,0,5.55-.58,5.94-.58h2.87c9,0,18,.58,27.01.77,4.21.19,8.81-.38,12.83.77,5.94-.19,11.49.38,17.24.19,1.53.38,1.53,1.15,1.53,2.3s-1.34,1.15-2.3,1.15h-.19c-2.49-.96-5.55-.77-8.43-.96-15.51-.57-31.6-1.72-47.31-1.72-2.68,0-5.36,0-7.85.57Z"/>
  <path d="M236.12,145.95c.19-1.92.19-11.11,0-13.02,0-.96-.58-8.81-.58-9.77-.38-4.98,0-10.15-.96-14.94l-2.49-52.1c.19-3.64-.57-7.28-1.15-10.92-.38-5.17-.19-10.53-.77-15.71-.38-4.21-1.15-8.24-.96-12.45-.38-1.72-1.34-9.38-1.53-11.11,0-.19-.19-1.53-.19-2.11,0-.38.19-1.72.19-2.11s.77-.38.96-.38c.38,0,.57,0,.77.38.96,1.53.58,3.83.77,5.36l1.15,8.62v.77c.77,17.43,3.64,34.86,3.26,52.29l1.92,29.11c-.19,4.41.57,9.19.96,13.79.77,10.92.96,21.83,1.34,32.75.38.96,0,4.21.77,4.6,7.85.77,15.9.58,23.56.96h1.15c4.79,0,9.58,1.15,14.75,1.15,1.15,0,2.49-.19,3.45-.19,1.34,0,1.72.96,1.72,2.11,0,.96-.96,1.34-1.92,1.34-4.21,0-8.62-.77-12.83-1.34-7.47-1.15-15.32-.38-23.17-.58-.38,0-3.26-.38-3.64-.38h-5.55c-1.15-1.92,0-4.21-.96-6.13Z"/>
  <path d="M311.97,145.95c.19-1.92.19-11.11,0-13.02,0-.96-.57-8.81-.57-9.77-.38-4.98,0-10.15-.96-14.94l-2.49-52.1c.19-3.64-.57-7.28-1.15-10.92-.38-5.17-.19-10.53-.77-15.71-.38-4.21-1.15-8.24-.96-12.45-.38-1.72-1.34-9.38-1.53-11.11,0-.19-.19-1.53-.19-2.11,0-.38.19-1.72.19-2.11s.77-.38.96-.38c.38,0,.58,0,.77.38.96,1.53.57,3.83.77,5.36l1.15,8.62v.77c.77,17.43,3.64,34.86,3.26,52.29l1.92,29.11c-.19,4.41.58,9.19.96,13.79.77,10.92.96,21.83,1.34,32.75.38.96,0,4.21.77,4.6,7.85.77,15.9.58,23.56.96h1.15c4.79,0,9.58,1.15,14.75,1.15,1.15,0,2.49-.19,3.45-.19,1.34,0,1.72.96,1.72,2.11,0,.96-.96,1.34-1.92,1.34-4.21,0-8.62-.77-12.83-1.34-7.47-1.15-15.32-.38-23.17-.58-.38,0-3.26-.38-3.64-.38h-5.55c-1.15-1.92,0-4.21-.96-6.13Z"/>
  <path d="M359.85,92.51c-.58-3.83-.38-7.47-.38-11.3,0-20.11,3.64-40.99,15.71-57.27.19-.19.57-.96.77-.96l6.13-7.28c5.36-6.51,17.05-10.34,25.28-13.02.77-.19.96-.77,1.92-.96,2.3-.19,4.6-.38,6.9-.38,3.06,0,4.6,0,7.85.38,1.15.96,2.87.96,4.02,1.34,8.24,2.11,12.07,5.75,18.58,10.53,1.72,1.15,3.83,2.68,4.6,4.79,2.49,3.45,5.94,8.81,8.81,12.45,0,.19.77.77.96.96,4.21,7.28,6.32,15.13,8.04,23.17,1.53,5.75,3.06,11.49,3.06,17.24v.19l-1.34,22.79c-.77,3.06-.57,5.94-1.72,8.62-3.45,9.58-7.09,18.77-11.68,27.77l-1.34,1.72c-2.3,2.87-4.6,6.32-7.47,8.81-1.92,1.72-3.83,2.68-5.94,3.83l-7.66,3.83c-7.66,3.06-16.28,4.79-24.52,4.79-10.34,0-18.77-3.06-27.01-9.19-.19-.19-2.68-2.68-3.64-3.26-.19,0-.38-.19-.38-.19l-8.24-10.34-2.11-3.64-3.45-7.47c-1.53-3.06-2.3-7.85-3.06-10.73l-2.68-17.24ZM410.04,151.5c10.15,0,16.85-1.53,26.24-5.55,2.87-1.15,6.51-2.49,8.62-4.4,8.24-7.09,13.02-15.9,16.66-25.67,1.72-4.41,4.41-9.58,5.36-13.79,1.72-9.19,1.92-17.81,2.49-27.58v-2.11c0-8.43-2.49-16.28-4.79-24.32-1.72-5.75-3.06-10.15-5.94-15.32-2.87-4.6-6.7-8.81-9.77-13.22-2.11-3.26-5.36-5.17-8.24-7.28-4.41-3.06-5.94-4.02-10.73-6.13-.38,0-.96-.19-1.15-.19h-1.53c-.19-.19-1.72-.77-1.92-.77-1.15-.38-4.02-1.15-5.36-1.15h-.77c-1.15,0-5.94.38-6.9.38-2.49,1.15-5.55.96-8.43,1.72-7.09,2.87-13.79,6.13-19.73,10.92-15.51,17.05-20.49,32.94-22.03,55.35,0,1.92-.38,10.73-.19,12.83,0,9.38,1.92,19.54,4.41,29.11.19.77.96,3.64,1.15,3.83l4.41,9.19,1.72,2.49c0,.19.19.57.19.77,9.77,12.26,19.54,20.88,36.2,20.88Z"/>
  <path d="M600.8,151.31c0-.19-1.53-1.53-2.11-1.92-6.89-6.7-11.11-15.13-11.11-24.71,0-.96.38-2.11,1.53-2.11.77,0,1.53.38,1.53,1.34-.38,9.58,3.45,19.34,11.88,24.9,4.98,2.87,14.36,3.45,19.73,3.45,17.81,0,31.99-11.49,31.99-30.07,0-4.79-1.34-9.96-3.45-14.56-4.02-7.85-7.66-14.56-13.98-20.49-4.6-4.41-10.73-7.47-16.09-10.53-15.32-8.43-33.71-18.2-33.71-37.73v-2.11c.19-1.53,1.72-9,2.11-10.53,0-.19.19-.77.38-.96l3.64-7.66,1.53-1.92,7.09-7.09c2.87-1.34,5.36-4.02,8.04-5.36,3.06-1.34,10.15-1.72,13.22-1.72,2.11,0,5.94,0,7.66.19,4.41.77,7.66,2.87,11.11,4.98,5.55,3.64,6.7,6.13,9.19,11.87.96,2.11,1.34,2.68,1.34,4.98-1.15,0-1.72-.77-2.49-1.72-1.92-4.21-3.06-7.28-6.13-10.53-.19,0-.96-.77-1.34-.96-7.09-4.6-9.58-6.7-19.34-6.7-18.77,0-33.71,17.43-33.71,35.82,0,.77.19,2.87.19,2.87.57,5.94,4.02,8.62,6.7,13.41,6.13,7.09,13.41,10.73,21.07,15.51,4.21,2.49,7.85,5.17,12.07,6.9,1.15.96,6.89,4.79,8.04,5.75,3.64,2.87,6.32,6.7,9.19,10.15,4.98,8.24,10.15,18.2,10.15,27.96,0,10.34-4.02,20.49-13.02,26.24-1.34.96-4.21,2.87-5.94,3.64-.19,0-1.72.57-1.92.57s-.57.19-.57.38c-5.17.96-9.96,1.92-15.13,1.92h-2.11l-8.81-.96c-1.92-.58-6.9-1.72-8.43-2.49Z"/>
  <path d="M681.63,102.85c-.57-2.11-1.72-6.7-1.72-6.89v-.38c-3.45-19.73-4.02-40.03-4.02-60.14,0-10.53.77-21.07.58-31.41,0-1.15.38-2.3,1.53-2.3.57,0,.77.19,1.15.57v4.02c0,9.39-.77,18.96-.77,28.54,0,10.53.77,21.26.77,31.79l1.34,17.81v.57l7.28,33.33c2.11,10.34,9.96,23.56,19.34,29.3,4.4,2.68,8.81,3.26,13.6,4.02h13.22c4.79,0,9.58-2.3,13.6-4.6,4.79-2.49,8.81-6.51,11.49-11.3,1.34-1.92,1.72-4.41,2.3-6.51l1.34-4.02,2.87-12.26c.57-3.26.19-7.09,1.53-10.53.19-2.87,1.34-15.9,1.34-18.77v-7.66c0-.57.77-6.13.77-6.9v-1.34c0-4.98-.38-9.96-.38-14.94s.38-9.38.38-13.98v-5.94c-.96-4.02-.57-8.04-.77-12.07,0-5.55-.96-11.3-.96-16.66,0-.38.19-1.34.19-1.53,0-.38.77-.38.96-.38.77,0,1.34.19,1.72.77-.19,6.32.57,12.26.77,18.39,0,4.02-.38,7.47.19,11.3v29.3c0,.57.38,5.55.38,6.13v.38c0,.38-.58,4.98-.58,5.55v9.58c0,1.15-.96,9.96-.96,11.11-.19.38-.19,1.92,0,2.3l-1.92,14.37c-1.15,3.64-1.34,7.47-2.3,10.92-.38,2.87-1.53,5.36-2.49,8.24,0,.38-.57,3.83-.77,4.41-.77,2.11-2.3,3.45-3.64,5.17-1.72,2.11-3.26,4.6-5.36,6.32-3.83,2.68-7.09,4.02-11.3,5.55-6.32,2.3-9,2.49-16.47,2.49-19.34,0-29.3-9-37.35-26.05-1.15-2.3-2.49-6.9-2.87-9.19-.77-2.3-3.26-13.22-3.83-15.51,0-.19-.19-.77-.19-.96Z"/>
  <path d="M794.63,122.96c.19-1.53,1.15-8.04,1.53-9.19l9.38-74.7c0-1.72.96-9.77,1.15-11.49,0-.19.38-3.45.57-4.41.19-1.15.57-4.4.57-4.6l1.92-12.07c.19-1.15.38-1.92,1.34-1.92,2.11,0,1.72,2.49,2.3,4.02l15.32,37.92,2.3,3.64,10.15,26.81c0,.38.38,1.53.58,1.72l3.26,8.04s.19.77.38.96l.38.38.96-.77c5.36-8.24,11.3-16.09,17.05-24.32.57-.96,6.13-9.38,7.09-10.53,1.72-2.87,4.41-5.75,6.32-8.62l9.96-14.36c0-.19.58-.96.58-1.15l7.47-11.11c.38-.96,1.72-1.92,2.49-3.06,1.15-2.11,5.17-8.04,5.75-8.81.77-1.53.77-3.83,3.06-3.83.77,0,1.34.19,1.72.77-1.34,4.6-.58,7.66,0,12.07.57,5.17.38,11.68,1.53,17.05l3.64,82.74-.38,2.87,1.72,18.2v.38c.96,4.98.58,9.58,1.15,14.56.19.77.96,1.34.96,2.3-.19.96-1.15,1.53-1.72,1.53-.77,0-1.53-.19-2.11-.19,0-.19.19-8.62,0-9.77,0-1.92,0-4.02-.57-5.75l-2.11-40.99v-8.81l-2.68-52.67-.96-7.47c-.19-1.92-.96-11.87-.96-13.98-.57-2.11-.96-3.45-.96-5.75l-.38-.19c-1.34,1.53-1.92,3.45-3.26,4.98-1.34,2.3-3.45,4.21-4.79,6.51-4.98,7.66-9.77,14.36-15.13,22.03-8.43,12.26-17.43,24.52-26.05,36.77l-5.94,9c-.96,1.92-.96,5.75-4.02,5.75-1.72,0-1.53-2.11-1.92-3.26-.38-.77-2.68-6.89-2.68-7.66-.19-.19-.58-1.34-.58-1.53-.19-.19-.77-1.53-.77-1.72l-9.58-25.67c-4.98-8.24-8.24-17.62-11.88-26.81-.19-.57-2.11-5.75-2.11-6.32l-2.11-4.41c-.77-1.53-1.15-4.02-2.3-4.79-.96,4.6-1.72,9.77-2.3,14.17-.38,3.83-1.15,9.58-1.34,13.6l-9.96,79.48c-.96,4.6-1.53,9-2.11,13.6-.77,6.89-1.34,11.3-1.92,18.19.57.77.19,1.72,0,2.49v1.34c-.19.19-.38.38-.57.38-.38.19-1.72.38-1.72.38l-.58-.77c0-.38.96-8.81,1.53-12.07l2.3-19.15Z"/>
  <path d="M939.81,122.96c.19-1.53,1.15-8.04,1.53-9.19l9.38-74.7c0-1.72.96-9.77,1.15-11.49,0-.19.38-3.45.57-4.41.19-1.15.57-4.4.57-4.6l1.92-12.07c.19-1.15.38-1.92,1.34-1.92,2.11,0,1.72,2.49,2.3,4.02l15.32,37.92,2.3,3.64,10.15,26.81c0,.38.38,1.53.58,1.72l3.26,8.04s.19.77.38.96l.38.38.96-.77c5.36-8.24,11.3-16.09,17.05-24.32.57-.96,6.13-9.38,7.09-10.53,1.72-2.87,4.41-5.75,6.32-8.62l9.96-14.36c0-.19.58-.96.58-1.15l7.47-11.11c.38-.96,1.72-1.92,2.49-3.06,1.15-2.11,5.17-8.04,5.75-8.81.77-1.53.77-3.83,3.06-3.83.77,0,1.34.19,1.72.77-1.34,4.6-.58,7.66,0,12.07.57,5.17.38,11.68,1.53,17.05l3.64,82.74-.38,2.87,1.72,18.2v.38c.96,4.98.58,9.58,1.15,14.56.19.77.96,1.34.96,2.3-.19.96-1.15,1.53-1.72,1.53-.77,0-1.53-.19-2.11-.19,0-.19.19-8.62,0-9.77,0-1.92,0-4.02-.57-5.75l-2.11-40.99v-8.81l-2.68-52.67-.96-7.47c-.19-1.92-.96-11.87-.96-13.98-.57-2.11-.96-3.45-.96-5.75l-.38-.19c-1.34,1.53-1.92,3.45-3.26,4.98-1.34,2.3-3.45,4.21-4.79,6.51-4.98,7.66-9.77,14.36-15.13,22.03-8.43,12.26-17.43,24.52-26.05,36.77l-5.94,9c-.96,1.92-.96,5.75-4.02,5.75-1.72,0-1.53-2.11-1.92-3.26-.38-.77-2.68-6.89-2.68-7.66-.19-.19-.58-1.34-.58-1.53-.19-.19-.77-1.53-.77-1.72l-9.58-25.67c-4.98-8.24-8.24-17.62-11.88-26.81-.19-.57-2.11-5.75-2.11-6.32l-2.11-4.41c-.77-1.53-1.15-4.02-2.3-4.79-.96,4.6-1.72,9.77-2.3,14.17-.38,3.83-1.15,9.58-1.34,13.6l-9.96,79.48c-.96,4.6-1.53,9-2.11,13.6-.77,6.89-1.34,11.3-1.92,18.19.57.77.19,1.72,0,2.49v1.34c-.19.19-.38.38-.57.38-.38.19-1.72.38-1.72.38l-.58-.77c0-.38.96-8.81,1.53-12.07l2.3-19.15Z"/>
  <path d="M1095.91,152.08h-13.22c-.77,0-1.34-1.15-1.34-1.72,0-1.34,1.72-.77,2.3-1.72v-3.45c0-.19-.38-1.72-.38-1.92,0,0,.19-.57.38-.57v-4.6c0-4.02,0-6.32-.38-10.53v-31.98c-.96-7.28-.38-14.75-.58-22.03,0-1.72-.57-15.71-.57-17.62v-27.77c0-1.92-.57-15.9-.57-17.62-.19-1.53-.38-4.02-.38-5.55v-.38c.19-.38,1.53-1.72,2.11-1.72,1.92-.19,5.36-.19,7.66-.77h35.43c2.87-.19,6.13-.57,9-.57h.19c.38,0,1.72.19,2.11.19h9.96c.19,0,1.72-.19,1.92-.19h.19c1.15,0,1.72.77,1.72,1.72,0,1.34-.96,2.11-2.11,2.11-3.64,0-7.28-1.15-10.92-1.15h-3.64c-14.75.38-29.5.19-44.24.77-1.34.19-6.13.19-6.51,1.15.38,10.15.58,20.3.58,30.45,0,4.79-.38,9.96-.38,14.94v1.72c.38,7.47.19,15.32,1.15,22.98h2.68c6.32,0,12.26-1.15,18.39-1.34h23.56c2.68-.57,6.32-.38,8.81-.38h5.55c1.53,0,8.81.57,10.53.77.77.38.96.57.96,1.15,0,1.15-.57,2.3-1.92,2.3-.77,0-1.15,0-2.3-.77-1.15,0-6.7-.77-7.66-.96-1.15,0-4.79-.38-5.17-.38-.96.19-9,.77-9.96.77h-2.68c-2.3,0-4.6-.38-6.9-.38-4.6,0-9.58.57-14.36.38l-19.34,1.92v46.54c0,1.15.19,11.49.19,12.64v.38c0,.77.38,6.32.38,6.89,0,2.11-.38,3.45,2.3,3.64.19,0,3.26-.19,3.64,0,.19,0,2.3.19,2.49.19.57,0,5.55-.58,5.94-.58h2.87c9,0,18,.58,27,.77,4.21.19,8.81-.38,12.83.77,5.94-.19,11.49.38,17.24.19,1.53.38,1.53,1.15,1.53,2.3s-1.34,1.15-2.3,1.15h-.19c-2.49-.96-5.55-.77-8.43-.96-15.51-.57-31.6-1.72-47.31-1.72-2.68,0-5.36,0-7.85.57Z"/>
  <path d="M1240.32,131.39c-6.32-7.09-12.45-13.98-18.96-21.07-3.45-3.64-7.47-6.51-10.53-10.53l-16.66-16.85c-1.53-1.53-2.87-1.92-4.79-3.45-2.3-1.53-3.06-2.87-5.55-2.87,0,21.64-.19,43.48.19,65.31,0,3.26.57,6.51.57,9.77v1.72c-.38.38-.96.58-1.53.58-2.11,0-1.34-4.41-1.34-5.36,0-4.02-.58-36.01-.58-39.84v-.96c0-3.45.19-30.84.38-34.28.19-23.56,3.26-46.73,2.68-70.48.77-.77,1.92-1.34,3.06-1.34h.19c.19,0,.96.19,1.34.38h22.98c1.72-.57,3.45-.38,5.17-.38,6.7,0,12.26,1.34,18.77,3.45,15.9,5.75,22.41,19.92,22.41,36.39,0,10.34-4.02,20.11-12.83,26.62-7.47,3.45-15.13,6.32-23.37,7.66-.38,0-2.11.19-2.49.38-.77,0-6.13.19-6.7.19-.96,0-1.72.77-2.68.77-1.34,0-2.3-.77-3.64-.77-2.11,0-4.21.77-6.13.77-3.45,0-7.09-.96-10.53-.96h-.38c.19,0,.38.19.38.19l5.55,4.02,15.51,15.51,2.87,3.26c1.53,1.53,5.75,5.55,5.75,5.75l.96.57,17.43,18.58c1.34,2.49,3.83,4.6,5.55,6.7,1.34,1.72,2.87,4.21,4.41,5.75l13.98,14.17c.96.38,1.53,1.15,1.53,2.11,0,1.34-.38,1.72-1.72,1.72h-.77c-1.53-2.49-3.83-4.98-5.94-7.09-1.15-1.53-7.09-7.28-8.24-8.43-1.92-2.68-4.21-4.98-6.32-7.66ZM1198.95,74.7c.57,0,2.3-.19,2.3-.19.38,0,3.06-.19,3.45-.19,5.17-.19,10.73.19,16.09-.77,3.06-.38,5.75-1.34,8.81-2.11,7.28-1.92,13.79-3.83,18.77-9.58,5.55-5.94,7.09-13.02,7.09-20.88,0-10.73-2.3-16.47-8.62-24.9-1.34-1.92-2.87-3.83-4.98-5.17-7.47-4.4-16.28-6.7-24.9-6.7-2.11,0-4.02,0-6.13.38h-16.66c-2.11,0-7.09.19-7.09.19l-.38.38s-.38,10.15-.57,14.36c-.19,4.6.19,9.77-.38,14.56-1.15,10.92-1.92,21.83-1.92,32.75,0,.77.19,4.21.19,4.98.38.77,1.72.96,2.49,1.53,4.41,0,8.43,1.34,12.45,1.34Z"/>
</svg>