<?xml version="1.0" encoding="UTF-8"?>
<svg id="logo_10_a" xmlns="http://www.w3.org/2000/svg" version="1.1" viewBox="0 0 110.67 156.67">
  <!-- Generator: Adobe Illustrator 29.6.1, SVG Export Plug-In . SVG Version: 2.1.1 Build 9)  -->
  <path d="M14.62,145.06c7.16-17.72,12.63-36,19.23-53.91l1.89-5.65c.75-1.88,1.7-5.84,2.64-7.16l9.42-28.09.75-1.32,6.79-18.47.38-.75,5.47-15.46c.57-1.13,1.89-3.39,2.26-4.9.75-2.07.75-7.16,3.77-7.16,2.26,0,2.45,3.2,2.83,4.9,1.89,9.61,4.34,18.85,6.79,28.27l1.88,7.92c.19.19.57,1.51.75,1.88l6.03,29.41c.57,2.64,1.51,4.9,1.88,7.54.38,1.13,1.7,11.12,2.07,12.44.75,4.34,2.07,9.05,2.83,13.19.19.38.57,1.88.38,2.64l3.39,19.98c.38,1.7.19,3.2.57,4.71,0,.38.94,4.34.94,4.71.19.57.75,4.71.75,5.28.19.94.75,4.52.75,5.28.19.19.75,1.7.75,1.88v.75c0,1.13-.57,1.51-1.7,1.51-2.26,0-1.32-2.26-1.51-3.77-.19-.75-.75-6.6-.94-7.16-.19-1.89-.19-3.58-1.13-5.28l-4.52-28.65c-.19-1.32-19.23-3.77-21.87-3.77-12.25,0-24.5.57-36.94.38-.57.19-.75,1.88-.75,1.88l-3.02,9.8c-.94,2.45-5.28,13.38-6.03,15.83-1.32,5.84-4.34,11.31-6.79,16.96-.38,1.51-.19,3.77-2.45,3.77-.94,0-1.32-.38-1.32-1.32,0-1.51,2.83-6.79,3.77-8.11ZM88.89,105.48h.19v-1.13l-15.27-70.69c-3.02-7.35-3.96-15.64-5.65-23.37l-1.13-2.83s-.38.19-.38.38c-3.2,6.41-5.47,13.57-7.73,20.36-.19.19-.38,1.13-.57,1.32l-9.42,25.64-.38.57-9.05,27.14c-.38,1.7-.38.57-1.13,2.64-1.51,4.52-3.02,9.05-4.9,13.57-.19.57-1.13,2.64-1.13,3.39,0,.19.19.38.38.38l3.02.75h26.01c2.26-.57,3.96-.38,6.22-.38,6.97,0,13.95,1.32,20.92,2.26Z"/>
</svg>