<?xml version="1.0" encoding="UTF-8"?>
<svg id="logo_1_h" xmlns="http://www.w3.org/2000/svg" version="1.1" viewBox="0 0 110.67 156.67">
  <!-- Generator: Adobe Illustrator 29.6.1, SVG Export Plug-In . SVG Version: 2.1.1 Build 9)  -->
  <path d="M106.28,146.9c0-18-3.26-35.82-2.68-53.82,0-.38-.19-1.15-.77-1.34h-2.49c-.19,0-1.72-.77-1.92-.77-4.21-.57-9.19-.57-13.6-.57-.38,0-1.53.19-1.72.19h-14.56c-1.34-.19-10.53-1.34-11.68-1.34-.57-.19-4.6,0-5.17,0-9-.38-18-.77-27.01-.77h-7.28l-1.15.38v2.87c2.11,11.11,2.3,21.26,3.26,32.56.57,8.24,1.72,16.66,1.72,25.09,0,.38-.19,2.68-.19,3.26-.19.57-.58.77-1.53.77s-1.34-.19-1.34-1.53c0-2.3.19-4.6.19-7.09,0-3.26-.96-6.51-.57-9.77l-1.92-30.45c.19-1.15-.38-3.45-.57-4.41l-3.26-30.84c-.19-.96-.38-1.92-.38-2.87L5.15,19.92c-.77-2.87-.96-5.55-1.53-8.43-.77-2.68-2.11-5.55-2.11-8.43,0-.96.38-1.53,1.53-1.53,2.11,0,1.15,2.68,1.34,4.02l1.34,4.4,6.89,42.14v1.34l2.68,24.9v.77c0,.77.57,4.41.57,5.17,1.15,1.92,8.81,1.53,10.73,1.72,10.15.19,20.49-.19,30.64.38,1.15.19,11.3,1.34,12.64,1.34.19,0,3.45.19,4.79.19,3.06,0,6.13-.38,9.38-.38,4.79,0,9.19.57,13.98.57.77,0,1.34-.38,2.11-.38,1.34,0,2.3.58,3.45.77.38-3.06.38-4.41.38-7.28,0-9-.38-17.81-.38-26.81,0-7.66.38-15.13.38-22.6,0-8.43-.19-14.94-1.72-22.98v-.96l-.19-6.51c0-.19.77-.19.96-.19.96,0,1.15.38,1.34,1.15,0,4.02.38,8.24,1.34,12.26,0,2.87.57,15.9.57,18.58v.19c0,7.09-.38,13.98-.38,21.07,0,11.3.57,22.79.38,34.09.38.96.38,1.53.38,2.11,0,.96,0,1.34-.38,2.11v6.13c0,4.4.38,9,.38,13.41l2.11,32.37c0,3.26.38,5.94.38,8.81,0,1.15-.57,2.11-1.72,2.11-.96,0-1.53-1.15-1.53-2.3,0-1.92.38-4.21.38-6.32Z"/>
</svg>