<?xml version="1.0" encoding="UTF-8"?>
<svg id="logo_8_m" xmlns="http://www.w3.org/2000/svg" version="1.1" viewBox="0 0 127.19 156.52">
  <!-- Generator: Adobe Illustrator 29.6.1, SVG Export Plug-In . SVG Version: 2.1.1 Build 9)  -->
  <path d="M4.43,122.98c.19-1.53,1.15-8.04,1.53-9.19L15.34,39.09c0-1.72.96-9.77,1.15-11.49,0-.19.38-3.45.57-4.41.19-1.15.57-4.4.57-4.6l1.92-12.07c.19-1.15.38-1.92,1.34-1.92,2.11,0,1.72,2.49,2.3,4.02l15.32,37.92,2.3,3.64,10.15,26.81c0,.38.38,1.53.58,1.72l3.26,8.04s.19.77.38.96l.38.38.96-.77c5.36-8.24,11.3-16.09,17.05-24.32.57-.96,6.13-9.38,7.09-10.53,1.72-2.87,4.41-5.75,6.32-8.62l9.96-14.36c0-.19.58-.96.58-1.15l7.47-11.11c.38-.96,1.72-1.92,2.49-3.06,1.15-2.11,5.17-8.04,5.75-8.81.77-1.53.77-3.83,3.06-3.83.77,0,1.34.19,1.72.77-1.34,4.6-.58,7.66,0,12.07.57,5.17.38,11.68,1.53,17.05l3.64,82.74-.38,2.87,1.72,18.2v.38c.96,4.98.58,9.58,1.15,14.56.19.77.96,1.34.96,2.3-.19.96-1.15,1.53-1.72,1.53-.77,0-1.53-.19-2.11-.19,0-.19.19-8.62,0-9.77,0-1.92,0-4.02-.57-5.75l-2.11-40.99v-8.81l-2.68-52.67-.96-7.47c-.19-1.92-.96-11.87-.96-13.98-.57-2.11-.96-3.45-.96-5.75l-.38-.19c-1.34,1.53-1.92,3.45-3.26,4.98-1.34,2.3-3.45,4.21-4.79,6.51-4.98,7.66-9.77,14.36-15.13,22.03-8.43,12.26-17.43,24.52-26.05,36.77l-5.94,9c-.96,1.92-.96,5.75-4.02,5.75-1.72,0-1.53-2.11-1.92-3.26-.38-.77-2.68-6.89-2.68-7.66-.19-.19-.58-1.34-.58-1.53-.19-.19-.77-1.53-.77-1.72l-9.58-25.67c-4.98-8.24-8.24-17.62-11.88-26.81-.19-.57-2.11-5.75-2.11-6.32l-2.11-4.41c-.77-1.53-1.15-4.02-2.3-4.79-.96,4.6-1.72,9.77-2.3,14.17-.38,3.83-1.15,9.58-1.34,13.6L7.46,118.55c-.96,4.6-1.53,9-2.11,13.6-.77,6.89-1.34,11.3-1.92,18.19.57.77.19,1.72,0,2.49v1.34c-.19.19-.38.38-.57.38-.38.19-1.72.38-1.72.38l-.58-.77c0-.38.96-8.81,1.53-12.07l2.3-19.15.04.04Z"/>
</svg>