<?xml version="1.0" encoding="UTF-8"?>
<svg id="logo_9_r" xmlns="http://www.w3.org/2000/svg" version="1.1" viewBox="0 0 100.04 156.67">
  <!-- Generator: Adobe Illustrator 29.6.1, SVG Export Plug-In . SVG Version: 2.1.1 Build 9)  -->
  <path d="M68.12,131.6c-6.32-7.09-12.45-13.98-18.96-21.07-3.45-3.64-7.47-6.51-10.53-10.53l-16.66-16.85c-1.53-1.53-2.87-1.92-4.79-3.45-2.3-1.53-3.06-2.87-5.55-2.87,0,21.64-.19,43.48.19,65.31,0,3.26.57,6.51.57,9.77v1.72c-.38.38-.96.58-1.53.58-2.11,0-1.34-4.41-1.34-5.36,0-4.02-.58-36.01-.58-39.84v-.96c0-3.45.19-30.84.38-34.28.19-23.56,3.26-46.73,2.68-70.48.77-.77,1.92-1.34,3.06-1.34h.19c.19,0,.96.19,1.34.38h22.98c1.72-.57,3.45-.38,5.17-.38,6.7,0,12.26,1.34,18.77,3.45,15.9,5.75,22.41,19.92,22.41,36.39,0,10.34-4.02,20.11-12.83,26.62-7.47,3.45-15.13,6.32-23.37,7.66-.38,0-2.11.19-2.49.38-.77,0-6.13.19-6.7.19-.96,0-1.72.77-2.68.77-1.34,0-2.3-.77-3.64-.77-2.11,0-4.21.77-6.13.77-3.45,0-7.09-.96-10.53-.96h-.38c.19,0,.38.19.38.19l5.55,4.02,15.51,15.51,2.87,3.26c1.53,1.53,5.75,5.55,5.75,5.75l.96.57,17.43,18.58c1.34,2.49,3.83,4.6,5.55,6.7,1.34,1.72,2.87,4.21,4.41,5.75l13.98,14.17c.96.38,1.53,1.15,1.53,2.11,0,1.34-.38,1.72-1.72,1.72h-.77c-1.53-2.49-3.83-4.98-5.94-7.09-1.15-1.53-7.09-7.28-8.24-8.43-1.92-2.68-4.21-4.98-6.32-7.66ZM26.75,74.9c.57,0,2.3-.19,2.3-.19.38,0,3.06-.19,3.45-.19,5.17-.19,10.73.19,16.09-.77,3.06-.38,5.75-1.34,8.81-2.11,7.28-1.92,13.79-3.83,18.77-9.58,5.55-5.94,7.09-13.02,7.09-20.88,0-10.73-2.3-16.47-8.62-24.9-1.34-1.92-2.87-3.83-4.98-5.17-7.47-4.4-16.28-6.7-24.9-6.7-2.11,0-4.02,0-6.13.38h-16.66c-2.11,0-7.09.19-7.09.19l-.38.38s-.38,10.15-.57,14.36c-.19,4.6.19,9.77-.38,14.56-1.15,10.92-1.92,21.83-1.92,32.75,0,.77.19,4.21.19,4.98.38.77,1.72.96,2.49,1.53,4.41,0,8.43,1.34,12.45,1.34Z"/>
</svg>