<?xml version="1.0" encoding="UTF-8"?>
<svg id="sale" xmlns="http://www.w3.org/2000/svg" version="1.1" viewBox="0 0 386.78 121.74">
  <!-- Generator: Adobe Illustrator 29.6.1, SVG Export Plug-In . SVG Version: 2.1.1 Build 9)  -->
  <path class="sale" d="M271.43,92.85c-11.09,0-13.86-6.4-13.86-31.97s2.77-32.24,13.86-32.24,13.86,6.45,13.86,32.24-2.77,31.97-13.86,31.97ZM271.43,117.05c28.5,0,42.63-18.62,42.63-56.17s-14.13-56.17-42.63-56.17-42.63,18.62-42.63,56.17,14.13,56.17,42.63,56.17ZM175.74,117.05c26.98,0,40.36-12.55,40.36-37.87,0-21.71-9.54-33.87-26.57-33.87-5.2,0-9.44,1.29-12.78,3.89l1.35-19.55h35.41V6.25h-55.44l-4.49,60.84,17.17,4.93c1.8-3.76,3.93-5.03,8.42-5.03,7.19,0,8.98,2.52,8.98,12.59,0,10.65-2.9,13.32-14.52,13.32-7.84,0-14.62-1.49-20.48-4.49l-5.01,24.11c8.15,3.03,17.29,4.53,27.58,4.53ZM101.63,79.09h38.48v-21.8h-38.48v21.8Z"/>
  <path class="sale_1" d="M369.23,65.32c-5.38,0-7.56-2.49-7.56-8.84s2.18-8.84,7.6-8.84,7.58,2.48,7.58,8.79-2.19,8.88-7.63,8.88ZM369.2,69.57c7.07,0,11.69-5.23,11.69-13.16s-4.59-13-11.6-13-11.67,5.2-11.67,13.08,4.58,13.08,11.58,13.08ZM334.35,32.85c-5.38,0-7.56-2.49-7.56-8.83s2.18-8.84,7.6-8.84,7.58,2.48,7.58,8.79-2.19,8.88-7.63,8.88ZM334.32,37.1c7.07,0,11.69-5.23,11.69-13.16s-4.59-13-11.6-13-11.67,5.2-11.67,13.08,4.58,13.08,11.58,13.08ZM339.85,69.59l27.62-56.85-3.64-2.21-27.62,56.84,3.64,2.22Z"/>
  <path class="sale_2" d="M103.35,44.57c-6.97,0-9.56-4.2-8.29-13.37,1.28-9.18,5.07-13.38,12.03-13.38s9.53,4.2,8.26,13.38c-1.27,9.17-5.08,13.37-12,13.37ZM103.2,45.54c7.51,0,11.94-4.77,13.27-14.35,1.34-9.58-1.72-14.35-9.24-14.35s-11.96,4.77-13.29,14.35c-1.34,9.58,1.7,14.35,9.26,14.35ZM81.57,18.26h8.59l.13-.9h-8.59l.87-6.19-1.12.26-.83,5.93h-3.88l-.13.9h3.89l-2.92,20.84c-.61,4.3.86,6.44,4.46,6.44,1.92,0,3.8-.74,5.54-1.99l-.22-.97c-1.67,1.33-3.37,1.99-5.1,1.99-3.08,0-4.15-1.76-3.61-5.63l2.92-20.69ZM55.87,31.19c-1.27,9.1-4.86,13.38-11,13.38-3.66,0-6.83-1.71-8.89-4.67l2.41-17.16c3.38-3.32,6.89-4.92,10.54-4.92,6.01,0,8.2,4.29,6.93,13.37ZM49.15,16.85c-3.73,0-7.42,1.64-10.69,4.97h-.05l.44-4.46h-.76l-5.54,39.45h1.05l2.22-15.8c2.09,2.88,5.27,4.54,8.96,4.54,6.71,0,10.86-4.77,12.2-14.35,1.34-9.59-1.23-14.35-7.83-14.35ZM12.66,45.54c3.76,0,7.79-1.8,11.18-4.86h.05l-.42,4.35h.76l3.89-27.67h-1.05l-3.14,22.38c-3.44,3.06-7.41,4.79-10.96,4.79-4.75,0-6.65-2.86-5.81-8.89l2.56-18.29h-1.06l-2.56,18.35c-.92,6.57,1.29,9.83,6.57,9.83Z"/>
</svg>