<?xml version="1.0" encoding="UTF-8"?>
<svg id="watermellon" xmlns="http://www.w3.org/2000/svg" version="1.1" viewBox="0 0 478.61 295.21">
  <!-- Generator: Adobe Illustrator 29.6.1, SVG Export Plug-In . SVG Version: 2.1.1 Build 9)  -->
  <defs>
    <style>
      .st0 {
        fill: #f63a38;
      }

      .st1 {
        fill: #e5f7a2;
      }

      .st2 {
        fill: #bce5b0;
      }

      .st3 {
        fill: #3e6f37;
      }

      .st4 {
        fill: #638f58;
      }

      .st5 {
        fill: #194e11;
      }
    </style>
  </defs>
  <path class="st2" d="M473.88,94.17c-.61.15-.66,1.02-.72,1.53-.43-.74-.08-1.48-1.09-1.9-2.42-1-8.51-1.63-11.5-2.23-24-4.87-48.13-9.25-72.15-14.07.25-.11.33-.72,1.12-.59,1.36.23,3.34,1.06,4.78,1.34,11.96,2.33,24.02,4.66,35.88,6.99,14.26,2.8,28.53,5.53,42.79,8.3.54.04.63.23.88.61Z"/>
  <path class="st4" d="M19.63,5.6c.34,1.3-1.2,2.3-1.36,2.66l-.4-.08c.28-.88.29-1.92.55-2.82.4.06.8.17,1.21.24Z"/>
  <path class="st4" d="M17.24,9.31c.08-.17.45-.26.48-.32l-.48.32Z"/>
  <path class="st1" d="M34.14,8.43c-.61,3.84-1.67,7.65-2.26,11.5-7.52,48.86,4.89,100.24,31.65,141.28,60.32,92.52,183.25,125.91,282.86,78.09,58.52-28.1,102.75-83.04,114.19-147.71,2.98.6,9.08,1.23,11.5,2.23,1.01.42.66,1.16,1.09,1.9-1.31,12.84-1.44,24.59-4.35,37.44-25.6,112.83-149.37,165.31-255.94,148.54C102.13,264.27-2.83,175.22,7.39,55.49c.02-.27.13-.54.16-.81.07-.74-.07-1.49-.01-2.09,0-.05.09-.26.16-.81.78-6.84,1.98-13.55,3.53-20.22.13-.57.26-1.38.31-1.61.65-2.56,1.55-4.99,2.3-7.5,1.14-3.8,2.25-7.68,3.49-11.45.2,0,.42-.14.48-.32.25-.72.19-1.77.47-2.42.16-.36,1.7-1.37,1.36-2.66,4.84.8,9.69,1.91,14.51,2.83Z"/>
  <path class="st5" d="M473.88,94.17c.17.26.43,5.37.43,6.19-.55,84.06-60.8,149.24-136.83,175.56-63.78,22.09-135.45,17.32-197.02-10.25C46.32,223.51-20.34,124.78,13.02,20.2c1.32-.03.51.83.55,1.91l.27.34c-.75,2.51-1.65,4.94-2.3,7.5-.66.04-.89,1.36-.31,1.61-1.54,6.67-2.75,13.38-3.53,20.22l-.44.16.28.64c-.06.61.08,1.35.01,2.09l-.39.19.23.62c-10.22,119.72,94.74,208.78,205.48,226.19,106.57,16.76,230.33-35.71,255.94-148.54,2.92-12.85,3.04-24.6,4.35-37.44.05-.52.11-1.39.72-1.53Z"/>
  <path class="st3" d="M17.81,10.68c-.2,0-.42.14-.48.32-1.24,3.77-2.35,7.65-3.49,11.45l-.27-.34c-.03-1.08.77-1.93-.55-1.91,1.14-3.57,2.66-7.61,4.22-10.89l.48-.32c.09-.22.08-.55.16-.81l.4.08c-.28.65-.22,1.7-.47,2.42Z"/>
  <path class="st3" d="M11.22,31.56c-.58-.25-.35-1.57.31-1.61-.06.23-.18,1.05-.31,1.61Z"/>
  <path class="st3" d="M7.54,52.59l-.28-.64.44-.16c-.06.55-.15.75-.16.81Z"/>
  <path class="st3" d="M7.39,55.49l-.23-.62.39-.19c-.02.27-.13.54-.16.81Z"/>
  <path class="st4" d="M17.32,11c.06-.18.28-.32.48-.32-.06.18-.28.32-.48.32Z"/>
  <path class="st0" d="M34.2,8.27c23.06,4.41,46.09,8.94,69.13,13.47,9.05,48,48.68,66.16,91.86,32.45,1.98.37-.22-.19,1.76.18,2.13.63,1.43,1.96,2.04,3.35,6.45,14.74,33.67,42.18,77.52,23.74,1.37.63,10.8-3.83,11.73-2.05,18.6,35.49,82.26,40.09,98.7,1.1.43-1.03.33-2.3.68-3.06.21-.46.76-.04.87-.09,24.01,4.82,48.14,9.2,72.15,14.07-11.44,64.67-55.67,119.61-114.19,147.71-99.61,47.83-222.54,14.43-282.86-78.09C36.83,120,24.42,68.62,31.94,19.76c.59-3.85,1.64-7.65,2.26-11.5Z"/>
  <polygon points="108.63 123.06 77.82 129.91 91.1 146.05 108.63 123.06"/>
  <polygon points="112.52 86.39 80.95 86.39 90.41 105.02 112.52 86.39"/>
  <polygon points="73.15 49.71 48.11 68.93 66.96 77.96 73.15 49.71"/>
  <polygon points="319.58 124.11 310.97 154.48 331.48 150.46 319.58 124.11"/>
  <polygon points="291.81 199.52 290.94 229.6 310.97 223.65 291.81 199.52"/>
  <polygon points="268.31 144.32 267.43 174.4 287.47 168.45 268.31 144.32"/>
  <polygon points="339.22 171.49 345.11 201 363.3 190.71 339.22 171.49"/>
  <polygon points="358.39 124.2 364.28 153.71 382.47 143.43 358.39 124.2"/>
  <polygon points="235.81 204.72 221.43 231.15 241.99 234.9 235.81 204.72"/>
  <polygon points="241.72 135.83 219.79 156.43 238.14 166.43 241.72 135.83"/>
  <polygon points="151.38 175.15 120.29 180.61 132.83 197.34 151.38 175.15"/>
  <polygon points="193.49 201.34 165.11 215.16 181.78 227.78 193.49 201.34"/>
  <polygon points="158.82 116.77 127.73 122.23 140.26 138.96 158.82 116.77"/>
  <polygon points="199.35 143.35 168.68 150.82 182.27 166.69 199.35 143.35"/>
  <polygon points="409.12 119.44 418.18 149.68 433.32 135.27 409.12 119.44"/>
</svg>