<?xml version="1.0" encoding="utf-8"?>
<!-- Generator: Adobe Illustrator 29.6.1, SVG Export Plug-In . SVG Version: 9.03 Build 0)  -->
<svg version="1.1" class="pasha_2026" xmlns="http://www.w3.org/2000/svg" xmlns:xlink="http://www.w3.org/1999/xlink" x="0px" y="0px"
	 viewBox="0 0 490.67 260.15" style="enable-background:new 0 0 490.67 260.15;" xml:space="preserve">
	<g>
		<path style="fill:#E27BAA;" d="M420.17,87.4c2.08-2.72,4.13-4.08,6.13-4.08c1.27,0,2.27,0.54,3,1.63c0.91,1.46,1.18,3.59,0.82,6.4
			c-0.37,2.82-0.09,4.95,0.82,6.4c0.36,0.73,1,1.63,1.91,2.72c0.91,1.09,1.63,1.73,2.18,1.91c-0.73,0.91-1.36,2.86-1.91,5.85
			c-0.54,3-1.82,6.4-3.81,10.21c-2.18,4.18-4.49,8.35-6.94,12.52c-2.45,4.18-5.85,8.99-10.21,14.43c-1.09,1.27-2.23,2.68-3.4,4.22
			c-1.18,1.54-2.36,2.95-3.54,4.22c-1.18,1.27-2.36,2.23-3.54,2.86c-1.18,0.64-2.22,0.68-3.13,0.14c-2-1.09-2.63-4.22-1.91-9.39
			c0.72-5.17,2.08-10.93,4.08-17.29c2-6.35,4.31-12.7,6.94-19.06c2.63-6.35,4.85-11.25,6.67-14.7
			C416.13,93.12,418.08,90.13,420.17,87.4z M387.91,170.72c3.08,0,6.08-0.68,8.99-2.04c2.9-1.36,5.67-3.08,8.3-5.17
			c2.63-2.08,5.13-4.45,7.49-7.08c2.36-2.63,4.63-5.13,6.81-7.49c-2,7.45-1.95,12.89,0.14,16.34c2.08,3.45,4.58,5.62,7.49,6.53
			c4.36,1.09,9.07,0.14,14.16-2.86c5.08-2.99,10.08-6.85,14.98-11.57c4.9-4.72,9.3-9.67,13.21-14.84c3.9-5.17,6.76-9.3,8.58-12.39
			c3.08-5.26,5.31-10.39,6.67-15.38c1.36-4.99,1.5-8.58,0.41-10.76c-0.18-0.54-0.64-0.82-1.36-0.82c-0.91,0-1.95,1-3.13,3
			c-1.18,2-2.59,4.54-4.22,7.62c-1.09,2-2.41,4.04-3.95,6.13c-1.54,2.09-3.31,5.22-5.31,9.39c-0.73,1.45-2.18,3.86-4.36,7.22
			c-2.18,3.36-4.63,6.72-7.35,10.07c-2.72,3.36-5.45,6.36-8.17,8.99c-2.72,2.63-4.9,3.95-6.53,3.95s-2.41-1.36-2.31-4.08
			c0.09-2.72,0.72-6.26,1.91-10.62c1.18-4.36,2.81-9.21,4.9-14.57c2.08-5.35,4.22-10.62,6.4-15.79c2.18-5.17,4.36-10.03,6.54-14.57
			c2.18-4.54,3.99-8.08,5.45-10.62c2.18-4.17,2.45-7.67,0.82-10.48c-1.63-2.81-4-4.22-7.08-4.22c-2,0-4.18,0.86-6.54,2.59
			c-2.36,1.73-4.36,4.59-5.99,8.58c-0.54-0.91-1.23-2.08-2.04-3.54c-0.82-1.45-1.73-2.9-2.72-4.36c-1-1.45-2.14-2.68-3.4-3.68
			c-1.27-1-2.63-1.5-4.08-1.5c-7.26,0-14.02,2.18-20.29,6.53c-6.26,4.36-11.89,9.85-16.88,16.47c-4.99,6.63-9.26,13.89-12.8,21.78
			c-3.54,7.9-6.04,15.43-7.49,22.6c-1.46,7.17-1.82,13.44-1.09,18.79c0.72,5.36,2.72,8.76,5.99,10.21
			C382.73,170.18,385.36,170.72,387.91,170.72z M273.82,255.4c2.18,0,3.9-0.91,5.17-2.72c0.91-1.46,1.54-3.95,1.91-7.49
			c0.36-3.54,0.72-6.4,1.09-8.58c1.63-7.62,3.9-15.48,6.81-23.55c2.9-8.08,6.35-16.16,10.35-24.23c3.99-8.08,8.35-16.06,13.07-23.96
			c4.72-7.9,9.62-15.56,14.7-23.01c0.54,4,1.27,7.99,2.18,11.98c0.91,4,2.18,7.49,3.81,10.48s3.68,5.26,6.13,6.81
			c2.45,1.54,5.58,1.95,9.39,1.23c1.27-0.18,3.13-1.27,5.58-3.27c2.45-2,5.17-4.45,8.17-7.35c3-2.9,6.17-6.17,9.53-9.8
			c3.36-3.63,6.44-7.22,9.26-10.75c2.81-3.54,5.31-6.9,7.49-10.07c2.18-3.17,3.63-5.76,4.36-7.76c1.27-3.63,2.18-7.17,2.72-10.62
			c0.54-3.45,0.27-5.9-0.82-7.35c-0.54-1.09-1.46-0.82-2.72,0.82c-1.27,1.63-2.59,3.68-3.95,6.13c-1.36,2.45-2.63,4.86-3.81,7.22
			c-1.18,2.36-1.95,3.81-2.31,4.36c-1.09,1.82-2.72,4.59-4.9,8.3c-2.18,3.72-4.72,7.49-7.62,11.3c-2.91,3.81-5.99,7.26-9.26,10.35
			c-3.27,3.09-6.45,4.9-9.53,5.45c-1.82,0.37-3.18-0.86-4.08-3.68c-0.91-2.81-1.59-6.31-2.04-10.48c-0.46-4.17-0.73-8.58-0.82-13.21
			c-0.09-4.63-0.23-8.58-0.41-11.84c2-2.18,4.31-4.49,6.94-6.94c2.63-2.45,5.35-4.9,8.17-7.35c2.81-2.45,5.67-4.81,8.58-7.08
			c2.9-2.27,5.54-4.22,7.9-5.85c-0.54,5.81,0.45,8.53,3,8.17c1.81-0.36,3.58-1.91,5.31-4.63c1.72-2.72,3.13-5.17,4.22-7.35
			c1.45-2.72,2.22-5.31,2.31-7.76c0.09-2.45-0.37-4.54-1.36-6.26c-1-1.72-2.45-3.08-4.36-4.08c-1.91-1-3.95-1.5-6.13-1.5
			c-3.09,0-6.4,1.14-9.94,3.4c-3.54,2.27-7.04,4.95-10.48,8.03c-3.45,3.09-6.63,6.26-9.53,9.53c-2.91,3.27-5.27,5.99-7.08,8.17
			c-0.73-2-1.73-4.58-3-7.76c-1.27-3.17-2.82-6.26-4.63-9.26c-1.82-3-3.81-5.62-5.99-7.9c-2.18-2.27-4.54-3.4-7.08-3.4
			c-2,0-3.91,0.64-5.72,1.91c-1.82,1.27-3.5,3-5.04,5.17c-1.54,2.18-2.86,4.59-3.95,7.22c-1.09,2.63-1.91,5.31-2.45,8.03
			c0,0.54-0.27,1.77-0.82,3.68c-0.54,1.91-1.18,3.99-1.91,6.26c-0.73,2.27-1.46,4.49-2.18,6.67c-0.73,2.18-1.27,4-1.63,5.45
			c-0.18,0.54-0.27,1.82-0.27,3.81c0,1.63,1,2.27,3,1.91c2.36-0.54,4.22-2.27,5.58-5.17c1.36-2.9,2.59-5.99,3.68-9.26
			c1.09-3.27,2.18-6.31,3.27-9.12c1.09-2.81,2.45-4.4,4.08-4.77c1.63-0.36,3,0.37,4.08,2.18c1.09,1.82,1.95,4.18,2.59,7.08
			c0.63,2.91,1.09,5.95,1.36,9.12c0.27,3.18,0.5,5.85,0.68,8.03c-11.07,14.16-21.33,28.18-30.77,42.07
			c-9.44,13.89-18.24,28.82-26.41,44.79c-1.45,2.72-2.9,6.26-4.36,10.62c-1.45,4.36-2.54,8.8-3.27,13.34
			c-0.72,4.54-0.82,8.8-0.27,12.8c0.54,3.99,2.18,7.08,4.9,9.26C267.56,254.04,270.74,255.4,273.82,255.4z M216.92,172.09
			c2.72,1.63,6.17,2.45,10.35,2.45c3.81,0,8.44-1,13.89-3c3.99-1.09,7.99-2.95,11.98-5.58c3.99-2.63,7.85-5.72,11.57-9.26
			c3.72-3.54,7.12-7.39,10.21-11.57c3.08-4.17,5.62-8.26,7.62-12.25c2.54-5.08,4.22-9.98,5.04-14.7c0.82-4.72,0.72-8.85-0.27-12.39
			c-1-3.54-3-6.35-5.99-8.44c-3-2.08-7.13-3.04-12.39-2.86c-4.54,0.18-8.4,0.95-11.57,2.31c-3.18,1.36-5.76,3-7.76,4.9
			c-2,1.91-3.45,3.95-4.36,6.13c-0.91,2.18-1.36,4.27-1.36,6.26c0,2.54,0.45,4.45,1.36,5.72c0.91,0.91,1.72,1.36,2.45,1.36
			c1.27,0,2.63-0.59,4.08-1.77c1.45-1.18,2.95-2.49,4.49-3.95c1.54-1.45,3.08-2.86,4.63-4.22c1.54-1.36,2.95-2.31,4.22-2.86
			c0.91,0.18,1.4,0.86,1.5,2.04c0.09,1.18,0,2.63-0.27,4.36c-0.27,1.73-0.73,3.59-1.36,5.58c-0.64,2-1.32,3.81-2.04,5.45
			c-0.37,0.73-1.36,2.82-3,6.26c-1.63,3.45-3.59,7.17-5.85,11.16c-2.27,4-4.77,7.9-7.49,11.71c-2.72,3.81-5.45,6.53-8.17,8.17
			c-2.18,1.09-3.99,1.63-5.45,1.63c-2.72,0-4.45-1.72-5.17-5.17c-0.73-3.45-0.68-7.76,0.14-12.93c0.82-5.17,2.31-10.93,4.49-17.29
			c2.18-6.35,4.85-12.43,8.03-18.24c3.17-5.81,6.71-10.98,10.62-15.52c3.9-4.54,8.03-7.62,12.39-9.26c1.09-0.36,2.49-0.09,4.22,0.82
			c1.72,0.91,3.54,2,5.45,3.27c1.91,1.27,3.72,2.5,5.45,3.68c1.72,1.18,3.22,1.86,4.49,2.04c4.9,0.37,8.76-0.86,11.57-3.68
			c2.81-2.81,4.67-5.85,5.58-9.12c0.91-3.27,0.91-6.13,0-8.58c-0.91-2.45-2.63-3.22-5.17-2.31c-2.18,0.73-4.81,1.09-7.9,1.09
			c-2.72,0-5.45-0.18-8.17-0.54c-2.72-0.36-5.17-0.54-7.35-0.54c-6.17,0-12.35,1.5-18.52,4.49c-6.17,3-11.84,6.94-17.02,11.84
			c-5.17,4.9-9.76,10.39-13.75,16.47c-4,6.08-6.99,12.12-8.99,18.11c-0.73,2.54-1.54,5.63-2.45,9.26c-0.91,3.63-1.63,7.4-2.18,11.3
			c-0.54,3.91-0.73,7.76-0.54,11.57c0.18,3.81,1,7.17,2.45,10.07C212.11,168.27,214.2,170.45,216.92,172.09z M183.43,57.59
			c2.36-1.18,4.9-3.04,7.62-5.58c1.63-1.63,3.77-3.54,6.4-5.72c2.63-2.18,5.35-4.4,8.17-6.67c2.81-2.27,5.58-4.49,8.3-6.67
			c2.72-2.18,4.9-4.08,6.54-5.72c2.72-3.08,4.22-5.62,4.49-7.62c0.27-2-0.27-3.4-1.63-4.22c-1.36-0.82-3.4-0.82-6.13,0
			c-2.72,0.82-5.72,2.59-8.99,5.31c-0.73,0.54-1.95,1.73-3.68,3.54c-1.73,1.82-3.77,3.95-6.13,6.4c-2.36,2.45-4.81,4.99-7.35,7.62
			c-2.54,2.63-4.9,5.04-7.08,7.22c-2.54,2.72-4.4,5.27-5.58,7.62c-1.18,2.36-1.23,4-0.14,4.9C179.35,58.91,181.07,58.77,183.43,57.59
			z M162.6,87.4c2.08-2.72,4.13-4.08,6.13-4.08c1.27,0,2.27,0.54,3,1.63c0.91,1.46,1.18,3.59,0.82,6.4c-0.37,2.82-0.09,4.95,0.82,6.4
			c0.36,0.73,1,1.63,1.91,2.72c0.91,1.09,1.63,1.73,2.18,1.91c-0.73,0.91-1.36,2.86-1.91,5.85c-0.54,3-1.82,6.4-3.81,10.21
			c-2.18,4.18-4.49,8.35-6.94,12.52c-2.45,4.18-5.85,8.99-10.21,14.43c-1.09,1.27-2.23,2.68-3.4,4.22c-1.18,1.54-2.36,2.95-3.54,4.22
			c-1.18,1.27-2.36,2.23-3.54,2.86c-1.18,0.64-2.23,0.68-3.13,0.14c-2-1.09-2.63-4.22-1.91-9.39c0.72-5.17,2.08-10.93,4.08-17.29
			c2-6.35,4.31-12.7,6.94-19.06c2.63-6.35,4.85-11.25,6.67-14.7C158.56,93.12,160.51,90.13,162.6,87.4z M130.33,170.72
			c3.08,0,6.08-0.68,8.99-2.04c2.9-1.36,5.67-3.08,8.3-5.17c2.63-2.08,5.13-4.45,7.49-7.08c2.36-2.63,4.63-5.13,6.81-7.49
			c-2,7.45-1.95,12.89,0.14,16.34c2.08,3.45,4.58,5.62,7.49,6.53c4.36,1.09,9.07,0.14,14.16-2.86c5.08-2.99,10.07-6.85,14.98-11.57
			c4.9-4.72,9.3-9.67,13.21-14.84c3.9-5.17,6.76-9.3,8.58-12.39c3.08-5.26,5.31-10.39,6.67-15.38c1.36-4.99,1.5-8.58,0.41-10.76
			c-0.18-0.54-0.64-0.82-1.36-0.82c-0.91,0-1.95,1-3.13,3c-1.18,2-2.59,4.54-4.22,7.62c-1.09,2-2.41,4.04-3.95,6.13
			c-1.54,2.09-3.31,5.22-5.31,9.39c-0.73,1.45-2.18,3.86-4.36,7.22c-2.18,3.36-4.63,6.72-7.35,10.07c-2.72,3.36-5.45,6.36-8.17,8.99
			c-2.72,2.63-4.9,3.95-6.54,3.95c-1.63,0-2.41-1.36-2.31-4.08c0.09-2.72,0.72-6.26,1.91-10.62c1.18-4.36,2.81-9.21,4.9-14.57
			c2.08-5.35,4.22-10.62,6.4-15.79s4.36-10.03,6.53-14.57c2.18-4.54,3.99-8.08,5.45-10.62c2.18-4.17,2.45-7.67,0.82-10.48
			c-1.63-2.81-4-4.22-7.08-4.22c-2,0-4.18,0.86-6.53,2.59c-2.36,1.73-4.36,4.59-5.99,8.58c-0.54-0.91-1.23-2.08-2.04-3.54
			c-0.82-1.45-1.73-2.9-2.72-4.36c-1-1.45-2.14-2.68-3.4-3.68c-1.27-1-2.63-1.5-4.08-1.5c-7.26,0-14.02,2.18-20.29,6.53
			c-6.26,4.36-11.89,9.85-16.88,16.47c-4.99,6.63-9.26,13.89-12.8,21.78c-3.54,7.9-6.04,15.43-7.49,22.6
			c-1.46,7.17-1.82,13.44-1.09,18.79c0.72,5.36,2.72,8.76,5.99,10.21C125.16,170.18,127.79,170.72,130.33,170.72z M16.11,174.26
			c1.72,1.09,3.58,1.63,5.58,1.63c1.63,0,3.58-1.36,5.85-4.08c2.27-2.72,3.95-5.99,5.04-9.8c0.91-2.54,1.54-4.94,1.91-7.22
			c0.36-2.27,0.63-3.77,0.82-4.49c1.09-4.17,2.68-9.57,4.77-16.2c2.08-6.62,4.45-13.84,7.08-21.65c2.63-7.8,5.45-15.93,8.44-24.37
			c3-8.44,5.9-16.56,8.71-24.37c2.81-7.8,5.45-15.02,7.9-21.65c2.45-6.62,4.49-12.02,6.13-16.2c2.18-0.18,4.94-0.23,8.3-0.14
			c3.36,0.09,6.9,0.32,10.62,0.68c3.72,0.37,7.35,0.73,10.89,1.09c3.54,0.37,6.58,0.73,9.12,1.09c-1.27,4.36-2.95,9.8-5.04,16.34
			c-2.09,6.53-4.36,13.57-6.81,21.1c-2.45,7.53-4.95,15.21-7.49,23.01c-2.54,7.81-4.95,15.02-7.22,21.65
			c-2.27,6.63-4.31,12.44-6.13,17.43c-1.82,4.99-3.18,8.4-4.08,10.21c-1.09,2.54-1.91,5.27-2.45,8.17c-0.54,2.91-1.73,5.54-3.54,7.9
			c-5.63,7.45-4.54,13.52,3.27,18.24c4.72,3.08,8.53,4.63,11.44,4.63c3.63,0,5.99-2.82,7.08-8.44c2-10.89,4.45-21.33,7.35-31.31
			c2.9-9.98,6.08-20.42,9.53-31.31c2-5.99,3.95-11.84,5.85-17.56c1.91-5.72,3.63-10.93,5.17-15.66c1.54-4.72,2.81-8.67,3.81-11.84
			c1-3.17,1.59-5.13,1.77-5.85c3.08-8.71,6.9-16.88,11.44-24.51c2.18,0.18,4.99,0.77,8.44,1.77c3.45,1,6.54,1.5,9.26,1.5
			c2.9,0,5.08-0.77,6.53-2.31c1.45-1.54,1.18-4.58-0.82-9.12c-0.54-1.45-1.36-3.04-2.45-4.77c-1.09-1.72-2.45-3.31-4.08-4.76
			c-1.63-1.45-3.54-2.54-5.72-3.27c-2.18-0.72-4.63-0.82-7.35-0.27c-2,0.37-4.13-0.09-6.4-1.36c-2.27-1.27-4.76-1.63-7.49-1.09
			c-1.46,0.37-2.77,0.77-3.95,1.23c-1.18,0.46-2.59,0.77-4.22,0.95c-8.17,0.37-16.29,0.46-24.37,0.27c-8.08-0.18-14.84,0-20.29,0.54
			c-2-3.45-4.81-5.17-8.44-5.17c-2.36,0-4.36,0.73-5.99,2.18c-1.09,0.91-2.23,1.54-3.4,1.91c-1.18,0.37-1.95,1.82-2.31,4.36
			c-2.18,0.54-4.95,1.32-8.3,2.31c-3.36,1-6.4,2.23-9.12,3.68c-2.72,1.46-4.54,3.04-5.45,4.77c-0.91,1.73,0,3.59,2.72,5.58
			c2,1.46,3.45,2.18,4.36,2.18c0.72,0,1.36-0.27,1.91-0.82c0.54-0.54,1.23-1.18,2.04-1.91c0.82-0.72,1.86-1.4,3.13-2.04
			c1.27-0.63,3-1.04,5.17-1.23c-1.63,5.81-3.86,12.84-6.67,21.1c-2.82,8.26-5.68,16.38-8.58,24.37c-2.91,7.99-5.54,15.21-7.9,21.65
			c-2.36,6.45-3.91,10.76-4.63,12.93c-1.09,3.27-2.41,7.22-3.95,11.84c-1.54,4.63-3.13,9.3-4.76,14.02
			c-1.63,4.72-3.36,9.3-5.17,13.75c-1.82,4.45-3.54,8.13-5.17,11.03c-2.36,3.81-3.54,6.58-3.54,8.3c0,1.73,2.36,3.86,7.08,6.4
			C12.8,172.17,14.39,173.17,16.11,174.26z"/>
	</g>
</svg>
