<?xml version="1.0" encoding="utf-8"?>
<!-- Generator: Adobe Illustrator 29.6.1, SVG Export Plug-In . SVG Version: 9.03 Build 0)  -->
<svg version="1.1" id="slice_03_price" xmlns="http://www.w3.org/2000/svg" xmlns:xlink="http://www.w3.org/1999/xlink" x="0px" y="0px"
	 viewBox="0 0 50.96 23.27" style="enable-background:new 0 0 50.96 23.27;" xml:space="preserve">
<g>
	<rect x="0.65" y="1.44" style="fill:#808080;" width="50.32" height="21.83"/>
	<rect y="0" style="fill:#006837;" width="49.46" height="21.83"/>
	<path style="fill:#FFFFFF;" d="M41.72,9.9c0.1-0.96,0.46-1.71,1.06-2.25c0.61-0.55,1.34-0.83,2.2-0.83c0.48,0,1.02,0.08,1.62,0.24
		V6.36c-0.56-0.16-1.09-0.24-1.59-0.24c-1.05,0-1.97,0.34-2.76,1.02c-0.78,0.67-1.23,1.59-1.36,2.77h-0.74v0.53h5.76V9.9H41.72z
		 M40.82,11.78c0.06,1.23,0.49,2.2,1.29,2.92c0.81,0.71,1.75,1.06,2.83,1.06c0.64,0,1.27-0.12,1.9-0.37v-0.7
		c-0.6,0.26-1.22,0.39-1.86,0.39c-0.87,0-1.64-0.3-2.32-0.89c-0.66-0.6-1-1.4-1.03-2.4h4.28v-0.53h-5.76v0.53H40.82z M30.11,8.1
		v0.87l2.25-1.56v8.25h0.82V6.14h-0.21L30.11,8.1z M22.84,10.7c-0.43-0.42-0.64-0.97-0.64-1.64c0-0.68,0.21-1.23,0.64-1.67
		c0.43-0.43,1.01-0.65,1.73-0.65c0.73,0,1.32,0.21,1.74,0.64s0.64,0.99,0.64,1.67c0,0.7-0.22,1.25-0.67,1.66
		c-0.45,0.41-1.03,0.61-1.74,0.61C23.84,11.33,23.27,11.12,22.84,10.7z M27.76,9.06c0-0.9-0.29-1.62-0.87-2.16
		c-0.56-0.55-1.33-0.83-2.32-0.83c-0.92,0-1.68,0.28-2.29,0.84c-0.59,0.56-0.89,1.28-0.89,2.15c0,0.86,0.29,1.57,0.86,2.13
		c0.56,0.55,1.29,0.83,2.17,0.83c0.72,0,1.25-0.16,1.6-0.47l0.06,0.04l-2.49,4.08h0.89l2.43-4.03C27.48,10.7,27.76,9.84,27.76,9.06z
		 M19.27,15.68L18.7,17.6l0.51,0.07c0.27-0.51,0.49-0.98,0.66-1.43c0.22-0.54,0.33-0.93,0.33-1.17c0-0.19-0.06-0.35-0.19-0.47
		c-0.13-0.12-0.28-0.19-0.46-0.19c-0.19,0-0.35,0.07-0.49,0.2c-0.13,0.13-0.2,0.29-0.2,0.47C18.85,15.38,18.99,15.58,19.27,15.68z
		 M16.14,11.16c0.43,0.43,0.65,0.98,0.65,1.66c0,0.69-0.22,1.25-0.65,1.68c-0.43,0.43-1.02,0.65-1.75,0.65
		c-0.74,0-1.33-0.22-1.77-0.65c-0.43-0.43-0.65-0.99-0.65-1.68c0-0.71,0.23-1.28,0.69-1.69c0.47-0.41,1.05-0.61,1.76-0.61
		C15.14,10.52,15.71,10.73,16.14,11.16z M11.17,12.82c0,0.9,0.29,1.62,0.87,2.17c0.58,0.55,1.36,0.83,2.35,0.83
		c0.94,0,1.71-0.28,2.3-0.83c0.6-0.56,0.9-1.29,0.9-2.17c0-0.87-0.29-1.58-0.87-2.13c-0.58-0.56-1.31-0.84-2.19-0.84
		c-0.73,0-1.27,0.16-1.62,0.47l-0.07-0.01l2.5-4.09h-0.89l-2.43,4C11.46,11.14,11.17,12.01,11.17,12.82z M9.66,15H4.3
		c0.01-0.87,0.35-1.61,1.02-2.22c0.32-0.3,0.61-0.53,0.87-0.71c0.25-0.17,0.59-0.39,1.03-0.64c1.55-0.94,2.33-1.91,2.33-2.9
		c0-0.8-0.29-1.41-0.86-1.83C8.1,6.27,7.41,6.06,6.6,6.06c-0.79,0-1.47,0.24-2.03,0.72S3.72,7.85,3.72,8.59
		c0,0.28,0.02,0.52,0.07,0.73l0.86,0.13C4.6,9.21,4.57,8.98,4.57,8.76c0-0.59,0.18-1.07,0.54-1.44c0.36-0.37,0.85-0.56,1.46-0.56
		c0.64,0,1.15,0.15,1.53,0.46s0.57,0.75,0.57,1.33c0,0.52-0.27,1-0.8,1.46c-0.37,0.32-0.85,0.66-1.43,1.02
		c-0.22,0.13-0.57,0.37-1.06,0.7c-0.22,0.15-0.5,0.39-0.83,0.7c-0.27,0.28-0.48,0.55-0.64,0.81c-0.34,0.63-0.52,1.4-0.53,2.3
		l0.23,0.13h6.05V15z"/>
</g>
</svg>
