<?xml version="1.0" encoding="utf-8"?>
<!-- Generator: Adobe Illustrator 29.6.1, SVG Export Plug-In . SVG Version: 9.03 Build 0)  -->
<svg version="1.1" id="Layer_1" xmlns="http://www.w3.org/2000/svg" xmlns:xlink="http://www.w3.org/1999/xlink" x="0px" y="0px"
	 viewBox="0 0 25.26 11.05" style="enable-background:new 0 0 25.26 11.05;" xml:space="preserve">
<style type="text/css">
	.st0{fill:#F3F3F3;}
</style>
<g>
	<path class="st0" d="M9.08,0h-7.1C0.88,0,0,0.88,0,1.97v7.1c0,1.09,0.88,1.97,1.97,1.97h7.1c1.09,0,1.97-0.88,1.97-1.97v-7.1
		C11.05,0.88,10.17,0,9.08,0z"/>
	<path class="st0" d="M23.28,0h-7.1c-1.09,0-1.97,0.88-1.97,1.97v7.1c0,1.09,0.88,1.97,1.97,1.97h7.1c1.09,0,1.97-0.88,1.97-1.97
		v-7.1C25.26,0.88,24.37,0,23.28,0z"/>
</g>
</svg>
